<svg version="1.1" viewBox="0.0 0.0 960.0 720.0" fill="none" stroke="none" stroke-linecap="square" stroke-miterlimit="10" xmlns:xlink="http://www.w3.org/1999/xlink" xmlns="http://www.w3.org/2000/svg"><clipPath id="p13.0"><path d="m0 0l960.0 0l0 720.0l-960.0 0l0 -720.0z" clip-rule="nonzero"/></clipPath><g clip-path="url(#p13.0)"><path fill="#ffffff" d="m0 0l960.0 0l0 720.0l-960.0 0z" fill-rule="evenodd"/><path fill="#000000" fill-opacity="0.0" d="m75.9432 25.929659l864.00006 0l0 120.0l-864.00006 0z" fill-rule="evenodd"/><path fill="#000000" d="m444.47446 70.12466q-4.578125 6.65625 -11.453125 13.75l9.15625 -0.453125l-2.75 -4.125l3.671875 -2.0625q3.671875 4.359375 6.1875 9.859375l-4.359375 2.0625l-1.140625 -2.296875l-5.953125 0.453125l0 24.75l-4.578125 0l0 -24.28125l-8.71875 0.6875q-0.21875 1.59375 -1.140625 0.6875l-0.921875 -5.046875l5.046875 0q1.828125 -1.828125 4.125 -4.359375q-3.671875 -3.203125 -8.015625 -6.40625l2.515625 -3.21875l1.609375 1.15625q5.265625 -7.562496 6.875 -11.687496l3.890625 2.296875q1.375 0.90625 -0.46875 1.140625q-2.515625 4.343746 -7.328125 10.312496l3.671875 2.96875q3.4375 -4.125 6.640625 -9.84375l4.125 2.515625q1.140625 0.921875 -0.6875 1.140625zm26.578125 35.515625l4.359375 0l0 4.359375l-30.25 0l0 -4.359375l5.5 0l0 -43.062496l20.390625 0l0 43.062496zm-4.578125 0l0 -12.375l-11.234375 0l0 12.375l11.234375 0zm0 -16.71875l0 -8.9375l-11.234375 0l0 8.9375l11.234375 0zm0 -13.296875l0 -8.703125l-11.234375 0l0 8.703125l11.234375 0zm-22.234375 15.8125q2.984375 6.421875 3.671875 11.0l-4.578125 1.375q0 -3.4375 -3.21875 -11.234375l4.125 -1.140625zm-13.046875 1.375q1.59375 0.453125 -0.234375 1.375q-1.140625 7.109375 -3.890625 13.296875l-3.90625 -2.296875q2.53125 -5.046875 3.671875 -13.0625l4.359375 0.6875zm101.265594 -6.640625q-1.828125 6.640625 -6.421875 14.203125q2.296875 5.734375 3.671875 5.734375q0.921875 0 1.828125 -5.046875l3.4375 2.0625q-1.375 8.015625 -4.8125 8.015625q-3.890625 0 -7.09375 -7.09375q-4.8125 5.5 -12.3749695 8.46875l-2.0625 -4.125q4.8124695 -1.59375 7.7968445 -3.65625l-10.3124695 0l0 3.4375l-3.90625 0l0 -23.609375l14.6718445 0l0 19.703125q4.125 -3.4375 4.578125 -4.8125q-1.59375 -6.1875 -1.59375 -18.546875l-20.62497 0l0 -3.671875l4.8125 0l-1.375 -6.640625l-2.0625 0l0 -3.671875l7.09375 0l0 -6.874996l3.671875 0q1.8280945 0.234375 0.234375 1.375l0 5.499996l7.0937195 0l0 3.671875l-2.0625 0l-1.828125 6.640625l5.046875 0l0 -16.265621l3.65625 0q1.828125 0.234375 0.234375 1.375l0 14.890621l10.53125 0l0 3.671875l-10.53125 0q0 11.453125 0.6875 14.203125q2.515625 -4.8125 4.34375 -11.6875l4.359375 1.609375q0.921875 0.90625 -0.6875 1.140625zm-51.328094 18.78125q1.609375 -6.1875 1.375 -13.515625l4.125 0.6875q1.609375 0.453125 0.234375 1.140625q0 7.109375 -1.609375 14.21875l-4.125 -2.53125zm25.203125 -34.359375l1.609375 6.640625l3.203125 0l1.3749695 -6.640625l-6.1874695 0zm-23.359375 -0.234375l1.59375 0.921875l5.28125 -11.453121l3.890625 1.828125q1.375 1.140625 -0.453125 1.140625l-5.28125 10.312496q1.375 0.921875 2.75 1.828125q2.53125 -4.34375 4.359375 -8.46875l3.65625 1.828125q1.15625 1.140625 -0.453125 1.140625q-3.890625 7.109375 -8.46875 13.984375l5.03125 -0.234375l-1.59375 -3.203125l2.96875 -1.609375q3.203125 4.8125 4.8125 8.9375l-3.671875 1.84375l-1.140625 -2.75l-3.4375 0.453125l0 25.65625l-3.890625 0l0 -25.203125l-5.734375 0.6875q-0.21875 1.84375 -1.140625 0.46875l-1.609375 -4.59375l5.046875 -0.21875q1.609375 -2.53125 3.203125 -5.28125q-3.4375 -2.28125 -7.78125 -4.578125l2.0625 -3.4375zm45.359344 4.578125q-1.140625 -4.125 -3.203125 -7.328125l3.890625 -1.828125q2.296875 3.65625 3.4375 7.328125l-4.125 1.828125zm-15.34375 26.125l0 -4.578125l-6.8749695 0l0 4.578125l6.8749695 0zm0 -8.25l0 -4.578125l-6.8749695 0l0 4.578125l6.8749695 0zm-17.18747 11.0q0.21875 -6.1875 -1.609375 -11.6875l4.125 -0.6875q2.0625 5.5 2.0625 11.6875l-4.578125 0.6875zm71.03122 -24.515625q-1.84375 -4.578125 -4.8125 -8.25l3.890625 -2.296875q3.671875 4.125 5.046875 8.03125l-4.125 2.515625zm18.546875 -12.609375l-37.5625 0l0 37.8125l37.5625 0l0 -37.8125zm0 44.453125l0 -2.28125l-37.5625 0l0 2.75l-4.59375 0l0 -49.26562l46.75 0l0 48.79687l-4.59375 0zm-14.203125 -21.078125q5.96875 2.984375 11.234375 7.109375l-3.671875 4.34375q-5.03125 -4.34375 -11.0 -7.328125q-5.265625 5.265625 -14.890625 8.9375l-2.96875 -4.125q9.15625 -3.671875 13.515625 -7.328125q-5.28125 -2.75 -11.921875 -5.5l2.984375 -3.671875q5.5 2.0625 12.375 5.28125q5.265625 -6.1875 9.390625 -18.109375l5.046875 2.0625q1.828125 0.453125 -0.6875 1.609375q-4.359375 11.0 -9.40625 16.71875zm-14.4375 -18.78125q2.984375 3.4375 5.046875 8.015625l-4.125 2.515625q-1.828125 -4.578125 -4.8125 -8.25l3.890625 -2.28125z" fill-rule="nonzero"/><g filter="url(#shadowFilter-p13.1)"><use xlink:href="#p13.1" transform="matrix(1.0 0.0 0.0 1.0 0.0 2.4146981627296586)"/></g><defs><filter id="shadowFilter-p13.1" filterUnits="userSpaceOnUse"><feGaussianBlur in="SourceAlpha" stdDeviation="1.399825" result="blur"/><feComponentTransfer in="blur" color-interpolation-filters="sRGB"><feFuncR type="linear" slope="0" intercept="0.0"/><feFuncG type="linear" slope="0" intercept="0.0"/><feFuncB type="linear" slope="0" intercept="0.0"/><feFuncA type="linear" slope="0.34901962" intercept="0"/></feComponentTransfer></filter></defs><g id="p13.1"><defs><linearGradient id="p13.2" gradientUnits="userSpaceOnUse" gradientTransform="matrix(6.644888096249612 0.0 0.0 6.644888096249612 0.0 0.0)" spreadMethod="pad" x1="101.01534858274059" y1="31.921508207383184" x2="101.01534858274059" y2="25.27662011113357"><stop offset="0.0" stop-color="#3e7fcd"/><stop offset="1.0" stop-color="#96c0ff"/></linearGradient></defs><path fill="url(#p13.2)" d="m362.13092 175.31955l0 0c0 -4.064392 3.2948303 -7.3592377 7.3592224 -7.3592377l294.38632 0c1.9517822 0 3.8236084 0.77534485 5.2037354 2.1554718c1.380127 1.380127 2.1554565 3.2519684 2.1554565 5.203766l0 29.436066c0 4.064392 -3.2947998 7.3592377 -7.359192 7.3592377l-294.38632 0c-4.064392 0 -7.3592224 -3.2948456 -7.3592224 -7.3592377z" fill-rule="evenodd"/><path stroke="#4a7dba" stroke-width="1.0" stroke-linejoin="round" stroke-linecap="butt" d="m362.13092 175.31955l0 0c0 -4.064392 3.2948303 -7.3592377 7.3592224 -7.3592377l294.38632 0c1.9517822 0 3.8236084 0.77534485 5.2037354 2.1554718c1.380127 1.380127 2.1554565 3.2519684 2.1554565 5.203766l0 29.436066c0 4.064392 -3.2947998 7.3592377 -7.359192 7.3592377l-294.38632 0c-4.064392 0 -7.3592224 -3.2948456 -7.3592224 -7.3592377z" fill-rule="evenodd"/><path fill="#ffffff" d="m448.5915 196.43695q0 0.1875 -0.015625 0.328125q0 0.140625 -0.03125 0.25q-0.03125 0.09375 -0.078125 0.1875q-0.046875 0.078125 -0.171875 0.203125q-0.109375 0.109375 -0.484375 0.34375q-0.375 0.234375 -0.9375 0.46875q-0.546875 0.234375 -1.28125 0.390625q-0.71875 0.15625 -1.5625 0.15625q-1.484375 0 -2.671875 -0.484375q-1.1875 -0.5 -2.03125 -1.453125q-0.828125 -0.96875 -1.28125 -2.375q-0.453125 -1.421875 -0.453125 -3.265625q0 -1.875 0.484375 -3.34375q0.484375 -1.484375 1.359375 -2.515625q0.890625 -1.03125 2.109375 -1.5625q1.21875 -0.546875 2.71875 -0.546875q0.65625 0 1.265625 0.125q0.625 0.125 1.15625 0.3125q0.53125 0.1875 0.9375 0.4375q0.40625 0.25 0.5625 0.40625q0.15625 0.15625 0.203125 0.234375q0.046875 0.078125 0.078125 0.203125q0.03125 0.109375 0.046875 0.265625q0.015625 0.140625 0.015625 0.359375q0 0.234375 -0.03125 0.40625q-0.015625 0.15625 -0.0625 0.265625q-0.046875 0.109375 -0.109375 0.171875q-0.0625 0.046875 -0.15625 0.046875q-0.15625 0 -0.453125 -0.234375q-0.296875 -0.234375 -0.765625 -0.5q-0.453125 -0.28125 -1.125 -0.5q-0.65625 -0.234375 -1.578125 -0.234375q-1.015625 0 -1.84375 0.40625q-0.8125 0.40625 -1.40625 1.1875q-0.578125 0.78125 -0.90625 1.921875q-0.328125 1.125 -0.328125 2.578125q0 1.4375 0.3125 2.546875q0.3125 1.109375 0.890625 1.859375q0.578125 0.734375 1.421875 1.125q0.84375 0.375 1.921875 0.375q0.890625 0 1.5625 -0.21875q0.6875 -0.234375 1.15625 -0.5q0.46875 -0.28125 0.765625 -0.5q0.3125 -0.21875 0.5 -0.21875q0.078125 0 0.125 0.03125q0.0625 0.03125 0.09375 0.140625q0.046875 0.09375 0.0625 0.265625q0.015625 0.171875 0.015625 0.453125zm12.265625 -3.546875q0 1.296875 -0.34375 2.375q-0.34375 1.078125 -1.015625 1.875q-0.671875 0.78125 -1.6875 1.21875q-1.015625 0.4375 -2.34375 0.4375q-1.3125 0 -2.28125 -0.375q-0.953125 -0.390625 -1.609375 -1.125q-0.640625 -0.75 -0.953125 -1.796875q-0.3125 -1.0625 -0.3125 -2.390625q0 -1.296875 0.328125 -2.375q0.328125 -1.09375 1.0 -1.875q0.6875 -0.78125 1.6875 -1.21875q1.015625 -0.4375 2.359375 -0.4375q1.296875 0 2.265625 0.390625q0.96875 0.390625 1.609375 1.125q0.640625 0.734375 0.96875 1.796875q0.328125 1.046875 0.328125 2.375zm-2.046875 0.125q0 -0.84375 -0.15625 -1.609375q-0.15625 -0.765625 -0.53125 -1.328125q-0.359375 -0.578125 -0.984375 -0.90625q-0.609375 -0.34375 -1.53125 -0.34375q-0.859375 0 -1.484375 0.3125q-0.609375 0.296875 -1.015625 0.859375q-0.390625 0.546875 -0.59375 1.3125q-0.1875 0.765625 -0.1875 1.65625q0 0.875 0.15625 1.640625q0.171875 0.75 0.53125 1.328125q0.375 0.5625 0.984375 0.90625q0.625 0.328125 1.5625 0.328125q0.84375 0 1.453125 -0.296875q0.625 -0.3125 1.015625 -0.859375q0.40625 -0.5625 0.59375 -1.3125q0.1875 -0.765625 0.1875 -1.6875zm13.921875 5.265625q0 0.09375 -0.046875 0.15625q-0.03125 0.0625 -0.140625 0.125q-0.109375 0.046875 -0.28125 0.0625q-0.15625 0.03125 -0.40625 0.03125q-0.265625 0 -0.4375 -0.03125q-0.171875 -0.015625 -0.28125 -0.0625q-0.09375 -0.0625 -0.125 -0.125q-0.03125 -0.0625 -0.03125 -0.15625l0 -1.390625q-0.90625 1.0 -1.796875 1.453125q-0.875 0.453125 -1.765625 0.453125q-1.0625 0 -1.78125 -0.34375q-0.71875 -0.359375 -1.171875 -0.953125q-0.4375 -0.609375 -0.640625 -1.40625q-0.1875 -0.8125 -0.1875 -1.953125l0 -6.40625q0 -0.09375 0.03125 -0.15625q0.046875 -0.0625 0.15625 -0.109375q0.125 -0.0625 0.3125 -0.078125q0.1875 -0.015625 0.46875 -0.015625q0.28125 0 0.46875 0.015625q0.1875 0.015625 0.296875 0.078125q0.125 0.046875 0.171875 0.109375q0.046875 0.0625 0.046875 0.15625l0 6.140625q0 0.921875 0.125 1.484375q0.140625 0.5625 0.40625 0.953125q0.28125 0.390625 0.703125 0.609375q0.421875 0.21875 0.984375 0.21875q0.734375 0 1.453125 -0.515625q0.71875 -0.515625 1.53125 -1.515625l0 -7.375q0 -0.09375 0.03125 -0.15625q0.046875 -0.0625 0.15625 -0.109375q0.125 -0.0625 0.296875 -0.078125q0.1875 -0.015625 0.484375 -0.015625q0.28125 0 0.46875 0.015625q0.1875 0.015625 0.28125 0.078125q0.109375 0.046875 0.15625 0.109375q0.0625 0.0625 0.0625 0.15625l0 10.546875zm12.65625 0q0 0.09375 -0.046875 0.15625q-0.046875 0.0625 -0.15625 0.125q-0.09375 0.046875 -0.28125 0.0625q-0.1875 0.03125 -0.46875 0.03125q-0.296875 0 -0.484375 -0.03125q-0.1875 -0.015625 -0.296875 -0.0625q-0.109375 -0.0625 -0.15625 -0.125q-0.046875 -0.0625 -0.046875 -0.15625l0 -6.171875q0 -0.90625 -0.140625 -1.453125q-0.140625 -0.546875 -0.40625 -0.9375q-0.265625 -0.40625 -0.703125 -0.609375q-0.421875 -0.21875 -0.984375 -0.21875q-0.71875 0 -1.453125 0.515625q-0.71875 0.515625 -1.515625 1.5l0 7.375q0 0.09375 -0.046875 0.15625q-0.046875 0.0625 -0.15625 0.125q-0.109375 0.046875 -0.296875 0.0625q-0.1875 0.03125 -0.484375 0.03125q-0.28125 0 -0.46875 -0.03125q-0.1875 -0.015625 -0.296875 -0.0625q-0.109375 -0.0625 -0.15625 -0.125q-0.03125 -0.0625 -0.03125 -0.15625l0 -10.546875q0 -0.09375 0.03125 -0.15625q0.03125 -0.0625 0.140625 -0.109375q0.109375 -0.0625 0.265625 -0.078125q0.171875 -0.015625 0.4375 -0.015625q0.265625 0 0.421875 0.015625q0.171875 0.015625 0.265625 0.078125q0.09375 0.046875 0.140625 0.109375q0.046875 0.0625 0.046875 0.15625l0 1.390625q0.890625 -0.984375 1.765625 -1.453125q0.890625 -0.46875 1.796875 -0.46875q1.046875 0 1.765625 0.359375q0.71875 0.359375 1.15625 0.96875q0.453125 0.59375 0.640625 1.390625q0.203125 0.796875 0.203125 1.921875l0 6.4375zm11.109375 -1.609375q0 0.203125 -0.015625 0.359375q0 0.140625 -0.03125 0.25q-0.03125 0.09375 -0.078125 0.171875q-0.03125 0.0625 -0.1875 0.21875q-0.140625 0.140625 -0.5 0.359375q-0.34375 0.21875 -0.78125 0.390625q-0.4375 0.171875 -0.953125 0.265625q-0.515625 0.109375 -1.078125 0.109375q-1.125 0 -2.015625 -0.375q-0.875 -0.375 -1.46875 -1.09375q-0.59375 -0.71875 -0.90625 -1.765625q-0.296875 -1.046875 -0.296875 -2.421875q0 -1.5625 0.375 -2.671875q0.375 -1.125 1.03125 -1.84375q0.671875 -0.71875 1.5625 -1.0625q0.90625 -0.34375 1.953125 -0.34375q0.5 0 0.96875 0.09375q0.484375 0.09375 0.875 0.25q0.40625 0.15625 0.703125 0.359375q0.3125 0.1875 0.453125 0.328125q0.140625 0.140625 0.1875 0.234375q0.0625 0.078125 0.09375 0.1875q0.046875 0.109375 0.046875 0.25q0.015625 0.140625 0.015625 0.34375q0 0.46875 -0.109375 0.65625q-0.09375 0.171875 -0.25 0.171875q-0.171875 0 -0.40625 -0.1875q-0.234375 -0.203125 -0.59375 -0.4375q-0.34375 -0.234375 -0.84375 -0.421875q-0.484375 -0.203125 -1.171875 -0.203125q-1.390625 0 -2.140625 1.078125q-0.734375 1.078125 -0.734375 3.109375q0 1.015625 0.1875 1.796875q0.1875 0.765625 0.5625 1.28125q0.375 0.515625 0.921875 0.765625q0.546875 0.25 1.25 0.25q0.671875 0 1.171875 -0.203125q0.5 -0.21875 0.875 -0.46875q0.375 -0.25 0.625 -0.453125q0.25 -0.21875 0.390625 -0.21875q0.078125 0 0.140625 0.046875q0.0625 0.046875 0.09375 0.171875q0.046875 0.109375 0.0625 0.28125q0.015625 0.15625 0.015625 0.390625zm4.5078125 1.609375q0 0.09375 -0.046875 0.15625q-0.046875 0.0625 -0.15625 0.125q-0.109375 0.046875 -0.296875 0.0625q-0.1875 0.03125 -0.484375 0.03125q-0.28125 0 -0.46875 -0.03125q-0.1875 -0.015625 -0.296875 -0.0625q-0.109375 -0.0625 -0.15625 -0.125q-0.03125 -0.0625 -0.03125 -0.15625l0 -10.546875q0 -0.078125 0.03125 -0.140625q0.046875 -0.078125 0.15625 -0.125q0.109375 -0.046875 0.296875 -0.0625q0.1875 -0.03125 0.46875 -0.03125q0.296875 0 0.484375 0.03125q0.1875 0.015625 0.296875 0.0625q0.109375 0.046875 0.15625 0.125q0.046875 0.0625 0.046875 0.140625l0 10.546875zm0.21875 -14.109375q0 0.6875 -0.265625 0.9375q-0.25 0.234375 -0.9375 0.234375q-0.6875 0 -0.9375 -0.234375q-0.25 -0.25 -0.25 -0.90625q0 -0.6875 0.25 -0.921875q0.265625 -0.25 0.953125 -0.25q0.6875 0 0.9375 0.234375q0.25 0.234375 0.25 0.90625zm5.2890625 14.109375q0 0.09375 -0.046875 0.15625q-0.046875 0.0625 -0.15625 0.125q-0.109375 0.046875 -0.296875 0.0625q-0.1875 0.03125 -0.484375 0.03125q-0.28125 0 -0.46875 -0.03125q-0.1875 -0.015625 -0.296875 -0.0625q-0.109375 -0.0625 -0.15625 -0.125q-0.03125 -0.0625 -0.03125 -0.15625l0 -15.65625q0 -0.09375 0.03125 -0.15625q0.046875 -0.078125 0.15625 -0.125q0.109375 -0.046875 0.296875 -0.0625q0.1875 -0.03125 0.46875 -0.03125q0.296875 0 0.484375 0.03125q0.1875 0.015625 0.296875 0.0625q0.109375 0.046875 0.15625 0.125q0.046875 0.0625 0.046875 0.15625l0 15.65625zm24.636719 0q0 0.09375 -0.046875 0.15625q-0.046875 0.0625 -0.15625 0.125q-0.09375 0.046875 -0.28125 0.0625q-0.1875 0.03125 -0.46875 0.03125q-0.296875 0 -0.484375 -0.03125q-0.1875 -0.015625 -0.296875 -0.0625q-0.109375 -0.0625 -0.15625 -0.125q-0.046875 -0.0625 -0.046875 -0.15625l0 -6.40625q0 -0.671875 -0.125 -1.21875q-0.109375 -0.546875 -0.375 -0.9375q-0.25 -0.40625 -0.65625 -0.609375q-0.390625 -0.21875 -0.9375 -0.21875q-0.671875 0 -1.34375 0.515625q-0.671875 0.515625 -1.484375 1.5l0 7.375q0 0.09375 -0.046875 0.15625q-0.046875 0.0625 -0.15625 0.125q-0.109375 0.046875 -0.296875 0.0625q-0.1875 0.03125 -0.46875 0.03125q-0.265625 0 -0.46875 -0.03125q-0.1875 -0.015625 -0.296875 -0.0625q-0.109375 -0.0625 -0.15625 -0.125q-0.03125 -0.0625 -0.03125 -0.15625l0 -6.40625q0 -0.671875 -0.140625 -1.21875q-0.125 -0.546875 -0.390625 -0.9375q-0.25 -0.40625 -0.640625 -0.609375q-0.390625 -0.21875 -0.9375 -0.21875q-0.65625 0 -1.34375 0.515625q-0.671875 0.515625 -1.46875 1.5l0 7.375q0 0.09375 -0.046875 0.15625q-0.046875 0.0625 -0.15625 0.125q-0.109375 0.046875 -0.296875 0.0625q-0.1875 0.03125 -0.484375 0.03125q-0.28125 0 -0.46875 -0.03125q-0.1875 -0.015625 -0.296875 -0.0625q-0.109375 -0.0625 -0.15625 -0.125q-0.03125 -0.0625 -0.03125 -0.15625l0 -10.546875q0 -0.09375 0.03125 -0.15625q0.03125 -0.0625 0.140625 -0.109375q0.109375 -0.0625 0.265625 -0.078125q0.171875 -0.015625 0.4375 -0.015625q0.265625 0 0.421875 0.015625q0.171875 0.015625 0.265625 0.078125q0.09375 0.046875 0.140625 0.109375q0.046875 0.0625 0.046875 0.15625l0 1.390625q0.890625 -0.984375 1.71875 -1.453125q0.84375 -0.46875 1.703125 -0.46875q0.65625 0 1.171875 0.15625q0.515625 0.15625 0.90625 0.4375q0.40625 0.265625 0.6875 0.65625q0.28125 0.375 0.46875 0.84375q0.53125 -0.578125 1.0 -0.96875q0.484375 -0.40625 0.921875 -0.640625q0.4375 -0.25 0.84375 -0.359375q0.421875 -0.125 0.84375 -0.125q1.03125 0 1.71875 0.359375q0.6875 0.359375 1.109375 0.96875q0.4375 0.59375 0.609375 1.390625q0.1875 0.796875 0.1875 1.6875l0 6.671875zm12.53125 -5.734375q0 0.46875 -0.234375 0.65625q-0.21875 0.1875 -0.515625 0.1875l-6.921875 0q0 0.890625 0.171875 1.59375q0.1875 0.703125 0.59375 1.203125q0.40625 0.5 1.0625 0.78125q0.65625 0.265625 1.609375 0.265625q0.75 0 1.328125 -0.125q0.59375 -0.125 1.015625 -0.28125q0.4375 -0.15625 0.703125 -0.265625q0.28125 -0.125 0.421875 -0.125q0.078125 0 0.140625 0.046875q0.078125 0.03125 0.109375 0.109375q0.03125 0.078125 0.046875 0.234375q0.015625 0.140625 0.015625 0.359375q0 0.140625 -0.015625 0.265625q0 0.109375 -0.015625 0.203125q-0.015625 0.078125 -0.0625 0.15625q-0.046875 0.0625 -0.109375 0.125q-0.0625 0.0625 -0.375 0.21875q-0.3125 0.140625 -0.828125 0.28125q-0.5 0.140625 -1.171875 0.25q-0.65625 0.109375 -1.40625 0.109375q-1.296875 0 -2.28125 -0.359375q-0.96875 -0.359375 -1.640625 -1.078125q-0.671875 -0.71875 -1.015625 -1.796875q-0.328125 -1.078125 -0.328125 -2.5q0 -1.359375 0.34375 -2.4375q0.359375 -1.09375 1.015625 -1.84375q0.671875 -0.765625 1.609375 -1.171875q0.9375 -0.40625 2.09375 -0.40625q1.234375 0 2.109375 0.40625q0.875 0.390625 1.4375 1.078125q0.5625 0.671875 0.828125 1.578125q0.265625 0.90625 0.265625 1.9375l0 0.34375zm-1.953125 -0.5625q0.046875 -1.53125 -0.671875 -2.390625q-0.703125 -0.875 -2.09375 -0.875q-0.71875 0 -1.265625 0.28125q-0.53125 0.265625 -0.90625 0.71875q-0.359375 0.4375 -0.5625 1.03125q-0.1875 0.578125 -0.21875 1.234375l5.71875 0zm20.535156 6.296875q0 0.09375 -0.046875 0.15625q-0.046875 0.0625 -0.15625 0.125q-0.09375 0.046875 -0.28125 0.0625q-0.1875 0.03125 -0.46875 0.03125q-0.296875 0 -0.484375 -0.03125q-0.1875 -0.015625 -0.296875 -0.0625q-0.109375 -0.0625 -0.15625 -0.125q-0.046875 -0.0625 -0.046875 -0.15625l0 -6.40625q0 -0.671875 -0.125 -1.21875q-0.109375 -0.546875 -0.375 -0.9375q-0.25 -0.40625 -0.65625 -0.609375q-0.390625 -0.21875 -0.9375 -0.21875q-0.671875 0 -1.34375 0.515625q-0.671875 0.515625 -1.484375 1.5l0 7.375q0 0.09375 -0.046875 0.15625q-0.046875 0.0625 -0.15625 0.125q-0.109375 0.046875 -0.296875 0.0625q-0.1875 0.03125 -0.46875 0.03125q-0.265625 0 -0.46875 -0.03125q-0.1875 -0.015625 -0.296875 -0.0625q-0.109375 -0.0625 -0.15625 -0.125q-0.03125 -0.0625 -0.03125 -0.15625l0 -6.40625q0 -0.671875 -0.140625 -1.21875q-0.125 -0.546875 -0.390625 -0.9375q-0.25 -0.40625 -0.640625 -0.609375q-0.390625 -0.21875 -0.9375 -0.21875q-0.65625 0 -1.34375 0.515625q-0.671875 0.515625 -1.46875 1.5l0 7.375q0 0.09375 -0.046875 0.15625q-0.046875 0.0625 -0.15625 0.125q-0.109375 0.046875 -0.296875 0.0625q-0.1875 0.03125 -0.484375 0.03125q-0.28125 0 -0.46875 -0.03125q-0.1875 -0.015625 -0.296875 -0.0625q-0.109375 -0.0625 -0.15625 -0.125q-0.03125 -0.0625 -0.03125 -0.15625l0 -10.546875q0 -0.09375 0.03125 -0.15625q0.03125 -0.0625 0.140625 -0.109375q0.109375 -0.0625 0.265625 -0.078125q0.171875 -0.015625 0.4375 -0.015625q0.265625 0 0.421875 0.015625q0.171875 0.015625 0.265625 0.078125q0.09375 0.046875 0.140625 0.109375q0.046875 0.0625 0.046875 0.15625l0 1.390625q0.890625 -0.984375 1.71875 -1.453125q0.84375 -0.46875 1.703125 -0.46875q0.65625 0 1.171875 0.15625q0.515625 0.15625 0.90625 0.4375q0.40625 0.265625 0.6875 0.65625q0.28125 0.375 0.46875 0.84375q0.53125 -0.578125 1.0 -0.96875q0.484375 -0.40625 0.921875 -0.640625q0.4375 -0.25 0.84375 -0.359375q0.421875 -0.125 0.84375 -0.125q1.03125 0 1.71875 0.359375q0.6875 0.359375 1.109375 0.96875q0.4375 0.59375 0.609375 1.390625q0.1875 0.796875 0.1875 1.6875l0 6.671875zm13.234375 -5.40625q0 1.359375 -0.296875 2.46875q-0.296875 1.09375 -0.890625 1.875q-0.578125 0.765625 -1.421875 1.171875q-0.84375 0.40625 -1.921875 0.40625q-0.515625 0 -0.9375 -0.09375q-0.421875 -0.09375 -0.84375 -0.3125q-0.40625 -0.234375 -0.8125 -0.578125q-0.40625 -0.34375 -0.875 -0.8125l0 1.28125q0 0.09375 -0.046875 0.171875q-0.046875 0.0625 -0.15625 0.109375q-0.09375 0.046875 -0.25 0.0625q-0.15625 0.03125 -0.40625 0.03125q-0.234375 0 -0.40625 -0.03125q-0.15625 -0.015625 -0.265625 -0.0625q-0.109375 -0.046875 -0.140625 -0.109375q-0.03125 -0.078125 -0.03125 -0.171875l0 -15.65625q0 -0.09375 0.03125 -0.15625q0.046875 -0.078125 0.15625 -0.125q0.109375 -0.046875 0.296875 -0.0625q0.1875 -0.03125 0.46875 -0.03125q0.296875 0 0.484375 0.03125q0.1875 0.015625 0.296875 0.0625q0.109375 0.046875 0.15625 0.125q0.046875 0.0625 0.046875 0.15625l0 6.3125q0.46875 -0.46875 0.90625 -0.796875q0.4375 -0.328125 0.859375 -0.53125q0.421875 -0.21875 0.84375 -0.3125q0.421875 -0.09375 0.890625 -0.09375q1.140625 0 1.953125 0.46875q0.828125 0.453125 1.328125 1.21875q0.515625 0.765625 0.75 1.796875q0.234375 1.03125 0.234375 2.1875zm-2.046875 0.21875q0 -0.8125 -0.125 -1.5625q-0.109375 -0.765625 -0.421875 -1.34375q-0.296875 -0.59375 -0.8125 -0.953125q-0.5 -0.359375 -1.25 -0.359375q-0.375 0 -0.734375 0.109375q-0.359375 0.09375 -0.734375 0.34375q-0.375 0.25 -0.78125 0.640625q-0.40625 0.375 -0.859375 0.96875l0 4.203125q0.796875 0.96875 1.515625 1.484375q0.734375 0.515625 1.515625 0.515625q0.71875 0 1.234375 -0.34375q0.515625 -0.359375 0.84375 -0.9375q0.328125 -0.59375 0.46875 -1.3125q0.140625 -0.71875 0.140625 -1.453125zm13.953125 -0.546875q0 0.46875 -0.234375 0.65625q-0.21875 0.1875 -0.515625 0.1875l-6.921875 0q0 0.890625 0.171875 1.59375q0.1875 0.703125 0.59375 1.203125q0.40625 0.5 1.0625 0.78125q0.65625 0.265625 1.609375 0.265625q0.75 0 1.328125 -0.125q0.59375 -0.125 1.015625 -0.28125q0.4375 -0.15625 0.703125 -0.265625q0.28125 -0.125 0.421875 -0.125q0.078125 0 0.140625 0.046875q0.078125 0.03125 0.109375 0.109375q0.03125 0.078125 0.046875 0.234375q0.015625 0.140625 0.015625 0.359375q0 0.140625 -0.015625 0.265625q0 0.109375 -0.015625 0.203125q-0.015625 0.078125 -0.0625 0.15625q-0.046875 0.0625 -0.109375 0.125q-0.0625 0.0625 -0.375 0.21875q-0.3125 0.140625 -0.828125 0.28125q-0.5 0.140625 -1.171875 0.25q-0.65625 0.109375 -1.40625 0.109375q-1.296875 0 -2.28125 -0.359375q-0.96875 -0.359375 -1.640625 -1.078125q-0.671875 -0.71875 -1.015625 -1.796875q-0.328125 -1.078125 -0.328125 -2.5q0 -1.359375 0.34375 -2.4375q0.359375 -1.09375 1.015625 -1.84375q0.671875 -0.765625 1.609375 -1.171875q0.9375 -0.40625 2.09375 -0.40625q1.234375 0 2.109375 0.40625q0.875 0.390625 1.4375 1.078125q0.5625 0.671875 0.828125 1.578125q0.265625 0.90625 0.265625 1.9375l0 0.34375zm-1.953125 -0.5625q0.046875 -1.53125 -0.671875 -2.390625q-0.703125 -0.875 -2.09375 -0.875q-0.71875 0 -1.265625 0.28125q-0.53125 0.265625 -0.90625 0.71875q-0.359375 0.4375 -0.5625 1.03125q-0.1875 0.578125 -0.21875 1.234375l5.71875 0zm11.050781 -3.5625q0 0.265625 -0.015625 0.4375q0 0.171875 -0.046875 0.28125q-0.03125 0.09375 -0.078125 0.15625q-0.046875 0.046875 -0.140625 0.046875q-0.09375 0 -0.234375 -0.046875q-0.140625 -0.0625 -0.3125 -0.109375q-0.15625 -0.0625 -0.375 -0.109375q-0.203125 -0.046875 -0.453125 -0.046875q-0.296875 0 -0.578125 0.125q-0.28125 0.109375 -0.59375 0.390625q-0.3125 0.265625 -0.65625 0.71875q-0.328125 0.4375 -0.734375 1.078125l0 6.9375q0 0.09375 -0.046875 0.15625q-0.046875 0.0625 -0.15625 0.125q-0.109375 0.046875 -0.296875 0.0625q-0.1875 0.03125 -0.484375 0.03125q-0.28125 0 -0.46875 -0.03125q-0.1875 -0.015625 -0.296875 -0.0625q-0.109375 -0.0625 -0.15625 -0.125q-0.03125 -0.0625 -0.03125 -0.15625l0 -10.546875q0 -0.09375 0.03125 -0.15625q0.03125 -0.0625 0.140625 -0.109375q0.109375 -0.0625 0.265625 -0.078125q0.171875 -0.015625 0.4375 -0.015625q0.265625 0 0.421875 0.015625q0.171875 0.015625 0.265625 0.078125q0.09375 0.046875 0.140625 0.109375q0.046875 0.0625 0.046875 0.15625l0 1.53125q0.421875 -0.625 0.796875 -1.015625q0.390625 -0.40625 0.734375 -0.625q0.34375 -0.234375 0.671875 -0.328125q0.328125 -0.09375 0.671875 -0.09375q0.15625 0 0.34375 0.03125q0.203125 0.015625 0.40625 0.0625q0.21875 0.046875 0.375 0.109375q0.171875 0.046875 0.234375 0.109375q0.078125 0.0625 0.09375 0.109375q0.03125 0.046875 0.046875 0.140625q0.03125 0.078125 0.03125 0.234375q0 0.15625 0 0.421875z" fill-rule="nonzero"/></g><g filter="url(#shadowFilter-p13.3)"><use xlink:href="#p13.3" transform="matrix(1.0 0.0 0.0 1.0 0.0 2.099737532808399)"/></g><defs><filter id="shadowFilter-p13.3" filterUnits="userSpaceOnUse"><feGaussianBlur in="SourceAlpha" stdDeviation="1.399825" result="blur"/><feComponentTransfer in="blur" color-interpolation-filters="sRGB"><feFuncR type="linear" slope="0" intercept="0.0"/><feFuncG type="linear" slope="0" intercept="0.0"/><feFuncB type="linear" slope="0" intercept="0.0"/><feFuncA type="linear" slope="0.3764706" intercept="0"/></feComponentTransfer></filter></defs><g id="p13.3"><path fill="#000000" fill-opacity="0.0" d="m123.8085 299.70825l786.1826 1.914856" fill-rule="evenodd"/><path stroke="#4f81bd" stroke-width="2.6666666666666665" stroke-linejoin="round" stroke-linecap="butt" d="m123.8085 299.70825l786.1826 1.914856" fill-rule="evenodd"/></g><g filter="url(#shadowFilter-p13.4)"><use xlink:href="#p13.4" transform="matrix(1.0 0.0 0.0 1.0 0.0 2.099737532808399)"/></g><defs><filter id="shadowFilter-p13.4" filterUnits="userSpaceOnUse"><feGaussianBlur in="SourceAlpha" stdDeviation="1.399825" result="blur"/><feComponentTransfer in="blur" color-interpolation-filters="sRGB"><feFuncR type="linear" slope="0" intercept="0.0"/><feFuncG type="linear" slope="0" intercept="0.0"/><feFuncB type="linear" slope="0" intercept="0.0"/><feFuncA type="linear" slope="0.3764706" intercept="0"/></feComponentTransfer></filter></defs><g id="p13.4"><path fill="#000000" fill-opacity="0.0" d="m516.6833 212.11485l0.1574707 171.52754" fill-rule="evenodd"/><path stroke="#4f81bd" stroke-width="2.6666666666666665" stroke-linejoin="round" stroke-linecap="butt" d="m516.6833 212.11485l0.1574707 171.52754" fill-rule="evenodd"/></g><g filter="url(#shadowFilter-p13.5)"><use xlink:href="#p13.5" transform="matrix(1.0 0.0 0.0 1.0 0.0 2.099737532808399)"/></g><defs><filter id="shadowFilter-p13.5" filterUnits="userSpaceOnUse"><feGaussianBlur in="SourceAlpha" stdDeviation="1.399825" result="blur"/><feComponentTransfer in="blur" color-interpolation-filters="sRGB"><feFuncR type="linear" slope="0" intercept="0.0"/><feFuncG type="linear" slope="0" intercept="0.0"/><feFuncB type="linear" slope="0" intercept="0.0"/><feFuncA type="linear" slope="0.3764706" intercept="0"/></feComponentTransfer></filter></defs><g id="p13.5"><path fill="#000000" fill-opacity="0.0" d="m386.3696 301.73865l-1.7316589 81.91507" fill-rule="evenodd"/><path stroke="#4f81bd" stroke-width="2.6666666666666665" stroke-linejoin="round" stroke-linecap="butt" d="m386.3696 301.73865l-1.7316589 81.91507" fill-rule="evenodd"/></g><g filter="url(#shadowFilter-p13.6)"><use xlink:href="#p13.6" transform="matrix(1.0 0.0 0.0 1.0 0.0 2.099737532808399)"/></g><defs><filter id="shadowFilter-p13.6" filterUnits="userSpaceOnUse"><feGaussianBlur in="SourceAlpha" stdDeviation="1.399825" result="blur"/><feComponentTransfer in="blur" color-interpolation-filters="sRGB"><feFuncR type="linear" slope="0" intercept="0.0"/><feFuncG type="linear" slope="0" intercept="0.0"/><feFuncB type="linear" slope="0" intercept="0.0"/><feFuncA type="linear" slope="0.3764706" intercept="0"/></feComponentTransfer></filter></defs><g id="p13.6"><path fill="#000000" fill-opacity="0.0" d="m255.95491 301.73865l-1.7316589 81.91507" fill-rule="evenodd"/><path stroke="#4f81bd" stroke-width="2.6666666666666665" stroke-linejoin="round" stroke-linecap="butt" d="m255.95491 301.73865l-1.7316589 81.91507" fill-rule="evenodd"/></g><g filter="url(#shadowFilter-p13.7)"><use xlink:href="#p13.7" transform="matrix(1.0 0.0 0.0 1.0 0.0 2.099737532808399)"/></g><defs><filter id="shadowFilter-p13.7" filterUnits="userSpaceOnUse"><feGaussianBlur in="SourceAlpha" stdDeviation="1.399825" result="blur"/><feComponentTransfer in="blur" color-interpolation-filters="sRGB"><feFuncR type="linear" slope="0" intercept="0.0"/><feFuncG type="linear" slope="0" intercept="0.0"/><feFuncB type="linear" slope="0" intercept="0.0"/><feFuncA type="linear" slope="0.3764706" intercept="0"/></feComponentTransfer></filter></defs><g id="p13.7"><path fill="#000000" fill-opacity="0.0" d="m125.540215 301.73865l-1.7316589 81.91507" fill-rule="evenodd"/><path stroke="#4f81bd" stroke-width="2.6666666666666665" stroke-linejoin="round" stroke-linecap="butt" d="m125.540215 301.73865l-1.7316589 81.91507" fill-rule="evenodd"/></g><g filter="url(#shadowFilter-p13.8)"><use xlink:href="#p13.8" transform="matrix(1.0 0.0 0.0 1.0 0.0 2.099737532808399)"/></g><defs><filter id="shadowFilter-p13.8" filterUnits="userSpaceOnUse"><feGaussianBlur in="SourceAlpha" stdDeviation="1.399825" result="blur"/><feComponentTransfer in="blur" color-interpolation-filters="sRGB"><feFuncR type="linear" slope="0" intercept="0.0"/><feFuncG type="linear" slope="0" intercept="0.0"/><feFuncB type="linear" slope="0" intercept="0.0"/><feFuncA type="linear" slope="0.3764706" intercept="0"/></feComponentTransfer></filter></defs><g id="p13.8"><path fill="#000000" fill-opacity="0.0" d="m649.20667 301.73865l-1.7316895 81.91507" fill-rule="evenodd"/><path stroke="#4f81bd" stroke-width="2.6666666666666665" stroke-linejoin="round" stroke-linecap="butt" d="m649.20667 301.73865l-1.7316895 81.91507" fill-rule="evenodd"/></g><g filter="url(#shadowFilter-p13.9)"><use xlink:href="#p13.9" transform="matrix(1.0 0.0 0.0 1.0 0.0 2.099737532808399)"/></g><defs><filter id="shadowFilter-p13.9" filterUnits="userSpaceOnUse"><feGaussianBlur in="SourceAlpha" stdDeviation="1.399825" result="blur"/><feComponentTransfer in="blur" color-interpolation-filters="sRGB"><feFuncR type="linear" slope="0" intercept="0.0"/><feFuncG type="linear" slope="0" intercept="0.0"/><feFuncB type="linear" slope="0" intercept="0.0"/><feFuncA type="linear" slope="0.3764706" intercept="0"/></feComponentTransfer></filter></defs><g id="p13.9"><path fill="#000000" fill-opacity="0.0" d="m909.9911 301.73865l-1.7316895 81.91507" fill-rule="evenodd"/><path stroke="#4f81bd" stroke-width="2.6666666666666665" stroke-linejoin="round" stroke-linecap="butt" d="m909.9911 301.73865l-1.7316895 81.91507" fill-rule="evenodd"/></g><g filter="url(#shadowFilter-p13.10)"><use xlink:href="#p13.10" transform="matrix(1.0 0.0 0.0 1.0 0.0 2.099737532808399)"/></g><defs><filter id="shadowFilter-p13.10" filterUnits="userSpaceOnUse"><feGaussianBlur in="SourceAlpha" stdDeviation="1.399825" result="blur"/><feComponentTransfer in="blur" color-interpolation-filters="sRGB"><feFuncR type="linear" slope="0" intercept="0.0"/><feFuncG type="linear" slope="0" intercept="0.0"/><feFuncB type="linear" slope="0" intercept="0.0"/><feFuncA type="linear" slope="0.3764706" intercept="0"/></feComponentTransfer></filter></defs><g id="p13.10"><path fill="#000000" fill-opacity="0.0" d="m779.59875 301.73865l-1.7316284 81.91507" fill-rule="evenodd"/><path stroke="#4f81bd" stroke-width="2.6666666666666665" stroke-linejoin="round" stroke-linecap="butt" d="m779.59875 301.73865l-1.7316284 81.91507" fill-rule="evenodd"/></g><g filter="url(#shadowFilter-p13.11)"><use xlink:href="#p13.11" transform="matrix(1.0 0.0 0.0 1.0 0.0 2.4146981627296586)"/></g><defs><filter id="shadowFilter-p13.11" filterUnits="userSpaceOnUse"><feGaussianBlur in="SourceAlpha" stdDeviation="1.399825" result="blur"/><feComponentTransfer in="blur" color-interpolation-filters="sRGB"><feFuncR type="linear" slope="0" intercept="0.0"/><feFuncG type="linear" slope="0" intercept="0.0"/><feFuncB type="linear" slope="0" intercept="0.0"/><feFuncA type="linear" slope="0.34901962" intercept="0"/></feComponentTransfer></filter></defs><g id="p13.11"><defs><linearGradient id="p13.12" gradientUnits="userSpaceOnUse" gradientTransform="matrix(14.290113683290455 0.0 0.0 14.290113683290455 0.0 0.0)" spreadMethod="pad" x1="9.996911837779473" y1="41.137608172308354" x2="9.996912555242252" y2="26.84749448901792"><stop offset="0.0" stop-color="#3e7fcd"/><stop offset="1.0" stop-color="#96c0ff"/></linearGradient></defs><path fill="url(#p13.12)" d="m101.29669 390.5806l0 0c0 -3.825592 3.1012573 -6.9268494 6.926857 -6.9268494l27.706596 0l0 0c1.8371124 0 3.598999 0.72979736 4.8980255 2.028839c1.2990417 1.2990417 2.028839 3.060913 2.028839 4.8980103l0 190.35367c0 3.8255615 -3.1012573 6.926819 -6.9268646 6.926819l-27.706596 0c-3.8255997 0 -6.926857 -3.1012573 -6.926857 -6.926819z" fill-rule="evenodd"/><path stroke="#4a7dba" stroke-width="1.0" stroke-linejoin="round" stroke-linecap="butt" d="m101.29669 390.5806l0 0c0 -3.825592 3.1012573 -6.9268494 6.926857 -6.9268494l27.706596 0l0 0c1.8371124 0 3.598999 0.72979736 4.8980255 2.028839c1.2990417 1.2990417 2.028839 3.060913 2.028839 4.8980103l0 190.35367c0 3.8255615 -3.1012573 6.926819 -6.9268646 6.926819l-27.706596 0c-3.8255997 0 -6.926857 -3.1012573 -6.926857 -6.926819z" fill-rule="evenodd"/><path fill="#ffffff" d="m125.26435 428.45868l-1.484375 0l0 -3.78125q-1.78125 2.0 -4.515625 2.8125l-0.59375 -1.484375q3.5625 -0.96875 4.96875 -3.109375l-2.828125 0l0 -3.859375l8.015617 0l0 3.625l1.1875 1.046875q0.078125 0.375 -0.359375 0.21875q-1.265625 0.75 -2.3124924 1.109375q1.3437424 0.890625 3.2656174 1.34375l-0.515625 1.5625q-3.1093674 -1.046875 -4.8281174 -3.125l0 3.640625zm1.1875 -4.15625q0.59375 -0.296875 2.0156174 -1.40625l-3.3437424 0q0.59375 0.8125 1.328125 1.40625zm-7.265625 -7.34375l11.203117 0l0 1.1875l-11.203117 0l0 -1.1875zm-0.15625 2.8125l-1.78125 0l0 4.15625l2.078125 -0.734375l0.296875 1.328125l-5.1875 2.15625q-0.078125 0.375 -0.375 0.15625l-0.59375 -1.71875l2.296875 -0.671875l0 -4.671875l-1.78125 0l0 -1.40625l1.78125 0l0 -4.15625l-2.078125 0l0 -1.40625l5.578125 0l0 1.40625l-2.015625 0l0 4.15625l1.78125 0l0 1.40625zm8.546875 0.453125l-5.5 0l0 1.484375l5.5 0l0 -1.484375zm1.9999924 -4.15625l-9.499992 0l0 -4.3125l9.499992 0l0 4.3125zm-1.265625 -3.125l-1.4843674 0l0 1.9375l1.4843674 0l0 -1.9375zm-2.7499924 0l-1.484375 0l0 1.9375l1.484375 0l0 -1.9375zm-2.734375 0l-1.484375 0l0 1.9375l1.484375 0l0 -1.9375z" fill-rule="nonzero"/><path fill="#ffffff" d="m119.779976 445.8493q-4.234375 1.265625 -5.5 1.640625q-0.21875 0.59375 -0.359375 0.078125l-0.453125 -1.5625q1.40625 -0.296875 2.53125 -0.59375l0 -6.390625l-2.078125 0l0 -1.40625l2.078125 0l0 -3.78125l1.40625 0q0.59375 0.078125 0.078125 0.4375l0 3.34375l1.84375 0l0 0.59375l3.046875 0l-0.890625 -1.859375l-1.328125 0l0 -1.1875l3.703125 0l0 -2.0l1.40625 0q0.59375 0.078125 0.078125 0.453125l0 1.546875l4.2343674 0l0 1.1875l-1.8593674 0l-0.8125 1.859375l3.6406174 0l0 1.1875l-11.218742 0l0 -0.375l-1.84375 0l0 6.015625q1.40625 -0.375 2.296875 -0.59375l0 1.40625zm5.484375 0l-1.546875 0q-0.15625 4.171875 -5.5 4.390625l-0.375 -1.484375q4.453125 -0.15625 4.390625 -2.90625l-0.828125 0l-0.8125 0l0 -5.484375l8.312492 0l0 5.484375l-2.1562424 0l0 2.234375q0 0.515625 0.671875 0.515625l0.8124924 0q0.296875 0 0.453125 -0.4375l0.296875 -0.890625l1.5625 0.4375l-0.453125 1.265625q-0.375 1.046875 -1.703125 1.046875l-1.7031174 0q-1.421875 0 -1.421875 -1.421875l0 -2.75zm-2.078125 -9.5l0.828125 1.859375l1.25 0l0.671875 -1.859375l-2.75 0zm-1.109375 7.203125l0 1.109375l5.34375 0l0 -1.109375l-5.34375 0zm0 -2.0l0 1.109375l5.34375 0l0 -1.109375l-5.34375 0z" fill-rule="nonzero"/><path fill="#ffffff" d="m117.842476 460.50555l-0.890625 1.703125l0 10.109375l-1.25 0l0 -8.46875q-0.53125 0.8125 -1.5625 1.703125l-0.59375 -1.5625q2.453125 -2.21875 3.484375 -5.046875l0.96875 0.375l2.59375 0l0.21875 -1.265625l-1.921875 0l0 -1.1875l2.078125 0l0.140625 -1.40625l1.421875 0.21875q0.296875 0.296875 -0.234375 0.375l-0.0625 0.8125l2.4375 0l0 2.453125l1.5625 0l0 1.1875l-8.390625 0zm9.5 10.171875q0.296875 0 0.296875 -0.296875l0 -8.09375l-1.546875 0l0 -1.40625l4.5156174 0l0 1.40625l-1.703125 0l0 8.765625q0 1.03125 -1.0312424 1.03125l-1.484375 0l-0.234375 -1.40625l1.1875 0zm-13.5 -11.578125q2.296875 -1.484375 3.265625 -3.71875l1.03125 0.671875q0.453125 0.296875 -0.0625 0.453125q-1.640625 2.8125 -3.640625 4.078125l-0.59375 -1.484375zm8.234375 -1.046875l-0.21875 1.265625l1.5625 0l0 -1.265625l-1.34375 0zm-4.078125 11.359375l0 -1.1875l1.625 0l0 -1.328125l-1.109375 0l0 -1.1875l3.78125 0l0 -0.96875l-1.703125 0l-1.703125 0l0 -3.421875l6.15625 0l0 3.421875l-1.484375 0l0 0.96875l2.296875 0l0 1.1875l-2.296875 0l0 1.328125l2.828125 0l0 1.1875l-2.828125 0l0 2.53125l-1.265625 0l0 -2.53125l-4.296875 0zm4.296875 -1.1875l0 -1.328125l-1.40625 0l0 1.328125l1.40625 0zm1.484375 -4.671875l0 -1.046875l-3.625 0l0 1.046875l3.625 0zm6.2343674 -5.71875l-3.9218674 0l0 -1.40625l3.9218674 0l0 1.40625z" fill-rule="nonzero"/><path fill="#ffffff" d="m118.7331 479.45868q-0.0625 0.375 -0.4375 1.71875l3.40625 0l0 -3.71875l1.421875 0q0.59375 0.078125 0.0625 0.453125l0 3.265625l6.0937424 0l0 1.40625l-6.0937424 0l0 3.40625l5.2031174 0l0 1.421875l-5.2031174 0l0 4.375l7.0624924 0l0 1.40625l-16.265617 0l0 -1.40625l7.71875 0l0 -4.375l-4.96875 0l0 -1.421875l4.96875 0l0 -3.40625l-3.859375 0q-0.890625 2.296875 -2.671875 4.078125l-1.109375 -1.1875q2.671875 -2.59375 3.1875 -6.828125l1.5625 0.375q0.453125 0.140625 -0.078125 0.4375z" fill-rule="nonzero"/><path fill="#ffffff" d="m120.967476 514.8962q0.296875 0 0.296875 -0.296875l0 -1.484375l-5.859375 0l0 -1.1875l5.859375 0l0 -1.1875l-7.796875 0l0 -1.1875l7.796875 0l0 -1.109375l-5.859375 0l0 -1.1875l5.859375 0l0 -1.046875l-2.53125 0l-2.4375 0l0 -3.1875l4.96875 0l0 -0.96875l-7.34375 0l0 -1.1875l7.34375 0l0 -1.703125l1.40625 0q0.59375 0.078125 0.078125 0.453125l0 1.25l7.1249924 0l0 1.1875l-7.1249924 0l0 0.96875l4.828125 0l0 3.1875l-4.828125 0l0 1.046875l5.7187424 0l0 2.296875l2.0 0l0 1.1875l-2.0 0l0 2.828125l-1.4843674 0l0 -0.453125l-4.234375 0l0 2.015625q0 1.1875 -1.1875 1.1875l-1.640625 0l-0.21875 -1.421875l1.265625 0zm-3.421875 -9.578125l3.71875 0l0 -1.40625l-3.71875 0l0 1.40625zm5.203125 0l3.5625 0l0 -1.40625l-3.5625 0l0 1.40625zm0 6.609375l4.234375 0l0 -1.1875l-4.234375 0l0 1.1875zm4.234375 -2.375l0 -1.109375l-4.234375 0l0 1.109375l4.234375 0z" fill-rule="nonzero"/><path fill="#ffffff" d="m114.217476 536.1618q4.15625 -0.96875 6.53125 -3.203125l-6.53125 0l0 -1.1875l7.1875 0l0 -1.109375l-4.8125 0l0 -1.1875l4.8125 0l0 -1.1875l-5.640625 0l0 -1.1875l3.859375 0l-0.8125 -1.40625l-4.59375 0l0 -1.1875l3.484375 0q-0.515625 -0.75 -1.34375 -1.40625l1.125 -0.890625q0.890625 0.515625 1.703125 1.625l-0.8125 0.671875l1.546875 0l0 -3.125l1.421875 0q0.59375 0.078125 0.0625 0.453125l0 2.671875l1.421875 0l0 -3.125l1.40625 0q0.59375 0.078125 0.078125 0.453125l0 2.671875l1.78125 0l-0.828125 -0.59375q0.75 -1.046875 1.34375 -1.9375l1.109375 0.75q0.5156174 0.296875 -0.078125 0.375q-0.359375 0.65625 -1.03125 1.40625l3.5624924 0l0 1.1875l-4.6718674 0l-0.828125 1.40625l4.0937424 0l0 1.1875l-5.8749924 0l0 1.1875l4.984375 0l0 1.1875l-4.984375 0l0 1.109375l7.3593674 0l0 1.1875l-6.4687424 0q2.609375 2.3125 6.5312424 3.125l-0.59375 1.5625q-4.0781174 -1.046875 -6.8281174 -3.5625l0 4.15625l-1.484375 0l0 -4.015625q-2.59375 2.296875 -6.59375 3.421875l-0.59375 -1.484375zm6.828125 -9.0625l2.296875 0l0.734375 -1.40625l-3.859375 0l0.828125 1.40625z" fill-rule="nonzero"/><path fill="#ffffff" d="m127.0456 557.9274l-0.296875 -1.625l1.1875 0q1.0468674 0 0.8281174 -1.703125q-0.296875 -2.078125 -1.8593674 -3.640625l1.3281174 -4.96875l-2.4374924 0l0 14.390625l-1.484375 0l0 -15.8125l4.3749924 0l0.140625 -0.21875l1.34375 1.109375l-0.296875 0.234375l-1.640625 4.96875q2.234375 2.453125 2.15625 4.375q-0.078125 2.890625 -2.0 2.890625l-1.3437424 0zm-11.9375 -5.109375l7.046875 0l0 6.75l-1.484375 0l0 -0.8125l-4.078125 0l0 1.1875l-1.484375 0l0 -7.125zm1.484375 1.40625l0 3.109375l4.078125 0l0 -3.109375l-4.078125 0zm1.25 -10.90625l1.640625 0q0.734375 0.140625 0.078125 0.59375l0 1.625l3.484375 0l0 1.40625l-1.046875 0l-1.03125 3.125l2.8125 0l0 1.40625l-10.15625 0l0 -1.40625l2.8125 0l-0.890625 -3.125l-0.96875 0l0 -1.40625l3.265625 0l0 -2.21875zm2.453125 3.625l-3.046875 0l0.75 3.125l1.40625 0l0.890625 -3.125z" fill-rule="nonzero"/></g><g filter="url(#shadowFilter-p13.13)"><use xlink:href="#p13.13" transform="matrix(1.0 0.0 0.0 1.0 0.0 2.4146981627296586)"/></g><defs><filter id="shadowFilter-p13.13" filterUnits="userSpaceOnUse"><feGaussianBlur in="SourceAlpha" stdDeviation="1.399825" result="blur"/><feComponentTransfer in="blur" color-interpolation-filters="sRGB"><feFuncR type="linear" slope="0" intercept="0.0"/><feFuncG type="linear" slope="0" intercept="0.0"/><feFuncB type="linear" slope="0" intercept="0.0"/><feFuncA type="linear" slope="0.34901962" intercept="0"/></feComponentTransfer></filter></defs><g id="p13.13"><defs><linearGradient id="p13.14" gradientUnits="userSpaceOnUse" gradientTransform="matrix(14.290113683290446 0.0 0.0 14.290113683290446 0.0 0.0)" spreadMethod="pad" x1="19.244308964627496" y1="41.13760817230838" x2="19.244308964627496" y2="26.847494489017937"><stop offset="0.0" stop-color="#3e7fcd"/><stop offset="1.0" stop-color="#96c0ff"/></linearGradient></defs><path fill="url(#p13.14)" d="m233.44304 390.5806l0 0c0 -3.825592 3.1012573 -6.9268494 6.9268494 -6.9268494l27.70662 0l0 0c1.8370972 0 3.5989685 0.72979736 4.8980103 2.028839c1.2990417 1.2990417 2.028839 3.060913 2.028839 4.8980103l0 190.35367c0 3.8255615 -3.1012573 6.926819 -6.9268494 6.926819l-27.70662 0c-3.825592 0 -6.9268494 -3.1012573 -6.9268494 -6.926819z" fill-rule="evenodd"/><path stroke="#4a7dba" stroke-width="1.0" stroke-linejoin="round" stroke-linecap="butt" d="m233.44304 390.5806l0 0c0 -3.825592 3.1012573 -6.9268494 6.9268494 -6.9268494l27.70662 0l0 0c1.8370972 0 3.5989685 0.72979736 4.8980103 2.028839c1.2990417 1.2990417 2.028839 3.060913 2.028839 4.8980103l0 190.35367c0 3.8255615 -3.1012573 6.926819 -6.9268494 6.926819l-27.70662 0c-3.825592 0 -6.9268494 -3.1012573 -6.9268494 -6.926819z" fill-rule="evenodd"/><path fill="#ffffff" d="m254.78435 426.9743q-3.703125 0.671875 -7.421875 1.1875q-0.0625 0.59375 -0.359375 0.21875l-0.453125 -1.921875l2.453125 -0.15625l0 -9.578125q-1.5625 0.828125 -2.96875 1.34375l-0.59375 -1.5625q5.78125 -1.78125 7.5 -5.265625l2.0 0.21875q0.296875 0.296875 -0.21875 0.375l0 0.21875q2.5937347 2.890625 7.7812347 4.15625l-0.890625 1.5625q-0.953125 -0.15625 -2.96875 -1.046875l0 5.796875l0.96875 -0.96875l1.34375 1.34375q0.0625 0.359375 -0.375 0.21875l-3.5625 2.296875q1.40625 0.96875 5.125 1.34375l-0.671875 1.5625q-6.4531097 -0.59375 -8.23436 -5.5l-2.75 0l0 3.34375l4.296875 -0.53125l0 1.34375zm-0.140625 -4.15625q0.296875 0.8125 1.328125 1.859375l2.3124847 -1.859375l-3.6406097 0zm2.5156097 -1.1875l0 -1.34375l-6.6718597 0l0 1.34375l6.6718597 0zm-6.6718597 -2.53125l6.6718597 0l0 -1.328125l-6.6718597 0l0 1.328125zm3.265625 -6.234375q-1.640625 2.15625 -4.453125 3.71875l3.859375 0l0 -1.9375l1.40625 0q0.59375 0.078125 0.078125 0.453125l0 1.484375l3.7031097 0q-2.21875 -1.046875 -4.5937347 -3.71875z" fill-rule="nonzero"/><path fill="#ffffff" d="m257.09683 440.50555l-6.5312347 0l0 0.53125l-1.484375 0l0 -6.90625l9.499985 0l0 6.75l-1.484375 0l0 -0.375zm-6.5312347 -1.40625l6.5312347 0l0 -3.5625l-6.5312347 0l0 3.5625zm9.42186 9.796875l-3.5625 0l0 1.34375l-1.4843597 0l0 -7.875l6.5312347 0l0 7.65625l-1.484375 0l0 -1.125zm-3.5625 -5.125l0 3.71875l3.5625 0l0 -3.71875l-3.5625 0zm-8.468735 0l0 3.71875l3.5625 0l0 -3.71875l-3.5625 0zm3.5625 5.125l-3.5625 0l0 1.34375l-1.484375 0l0 -7.875l6.53125 0l0 7.65625l-1.484375 0l0 -1.125z" fill-rule="nonzero"/><path fill="#ffffff" d="m254.26872 459.83368q0.453125 0.234375 -0.078125 0.375q-0.296875 0.75 -0.953125 2.078125l8.906235 0l0 1.40625l-3.640625 0q-0.515625 2.375 -2.078125 4.3125q2.453125 1.03125 4.671875 2.75l-1.328125 1.40625q-2.3125 -1.859375 -4.4531097 -2.890625q-2.90625 2.375 -8.609375 2.96875l-0.296875 -1.78125q4.59375 -0.15625 7.34375 -1.9375q-1.9375 -0.8125 -3.34375 -1.328125q-0.296875 0.4375 -0.671875 0.890625l-1.25 -0.890625q1.03125 -1.421875 2.296875 -3.5l-4.96875 0l0 -1.40625l5.640625 0q0.890625 -1.859375 1.25 -2.96875l1.5625 0.515625zm0.671875 7.5q1.4843597 -1.78125 1.9218597 -3.640625l-4.2968597 0q-0.453125 0.890625 -1.40625 2.3125q1.546875 0.4375 3.78125 1.328125zm6.7499847 -6.3125l-1.484375 0l0 -2.296875l-12.468735 0l0 2.296875l-1.484375 0l0 -3.703125l6.90625 0l0 -2.15625l1.40625 0q0.59375 0.078125 0.078125 0.453125l0 1.703125l7.0468597 0l0 3.703125z" fill-rule="nonzero"/><path fill="#ffffff" d="m253.67497 479.23993q-2.15625 3.046875 -4.234375 4.453125l9.35936 0q-2.453125 -1.328125 -5.1249847 -4.453125zm-4.890625 4.90625q-1.046875 0.59375 -2.453125 1.328125l-0.75 -1.5625q5.046875 -2.140625 7.421875 -6.75l1.640625 0.21875q0.59375 0.234375 -0.078125 0.375l-0.140625 0.21875q3.3281097 4.09375 7.9374847 5.5l-0.75 1.625q-0.890625 -0.296875 -2.515625 -1.25l0 1.25l-4.3749847 0l0 2.53125l4.8124847 0l0 1.40625l-4.8124847 0l0 2.890625l6.8281097 0l0 1.421875l-15.14061 0l0 -1.421875l6.828125 0l0 -2.890625l-4.828125 0l0 -1.40625l4.828125 0l0 -2.53125l-4.453125 0l0 -0.953125z" fill-rule="nonzero"/><path fill="#ffffff" d="m252.86247 514.8962q0.296875 0 0.296875 -0.296875l0 -1.484375l-5.859375 0l0 -1.1875l5.859375 0l0 -1.1875l-7.796875 0l0 -1.1875l7.796875 0l0 -1.109375l-5.859375 0l0 -1.1875l5.859375 0l0 -1.046875l-2.53125 0l-2.4375 0l0 -3.1875l4.96875 0l0 -0.96875l-7.34375 0l0 -1.1875l7.34375 0l0 -1.703125l1.40625 0q0.59375 0.078125 0.078125 0.453125l0 1.25l7.1249847 0l0 1.1875l-7.1249847 0l0 0.96875l4.8281097 0l0 3.1875l-4.8281097 0l0 1.046875l5.7187347 0l0 2.296875l2.0 0l0 1.1875l-2.0 0l0 2.828125l-1.484375 0l0 -0.453125l-4.2343597 0l0 2.015625q0 1.1875 -1.1875 1.1875l-1.640625 0l-0.21875 -1.421875l1.265625 0zm-3.421875 -9.578125l3.71875 0l0 -1.40625l-3.71875 0l0 1.40625zm5.203125 0l3.5624847 0l0 -1.40625l-3.5624847 0l0 1.40625zm0 6.609375l4.2343597 0l0 -1.1875l-4.2343597 0l0 1.1875zm4.2343597 -2.375l0 -1.109375l-4.2343597 0l0 1.109375l4.2343597 0z" fill-rule="nonzero"/><path fill="#ffffff" d="m246.11247 536.1618q4.15625 -0.96875 6.53125 -3.203125l-6.53125 0l0 -1.1875l7.1875 0l0 -1.109375l-4.8125 0l0 -1.1875l4.8125 0l0 -1.1875l-5.640625 0l0 -1.1875l3.859375 0l-0.8125 -1.40625l-4.59375 0l0 -1.1875l3.484375 0q-0.515625 -0.75 -1.34375 -1.40625l1.125 -0.890625q0.890625 0.515625 1.703125 1.625l-0.8125 0.671875l1.546875 0l0 -3.125l1.421875 0q0.59375 0.078125 0.0625 0.453125l0 2.671875l1.421875 0l0 -3.125l1.4062347 0q0.59375 0.078125 0.078125 0.453125l0 2.671875l1.78125 0l-0.828125 -0.59375q0.75 -1.046875 1.34375 -1.9375l1.109375 0.75q0.515625 0.296875 -0.078125 0.375q-0.359375 0.65625 -1.03125 1.40625l3.5625 0l0 1.1875l-4.671875 0l-0.828125 1.40625l4.09375 0l0 1.1875l-5.8749847 0l0 1.1875l4.9843597 0l0 1.1875l-4.9843597 0l0 1.109375l7.3593597 0l0 1.1875l-6.4687347 0q2.6093597 2.3125 6.5312347 3.125l-0.59375 1.5625q-4.078125 -1.046875 -6.8281097 -3.5625l0 4.15625l-1.484375 0l0 -4.015625q-2.59375 2.296875 -6.59375 3.421875l-0.59375 -1.484375zm6.828125 -9.0625l2.296875 0l0.734375 -1.40625l-3.859375 0l0.828125 1.40625z" fill-rule="nonzero"/><path fill="#ffffff" d="m258.94058 557.9274l-0.296875 -1.625l1.1875 0q1.046875 0 0.828125 -1.703125q-0.296875 -2.078125 -1.859375 -3.640625l1.328125 -4.96875l-2.4375 0l0 14.390625l-1.484375 0l0 -15.8125l4.375 0l0.140625 -0.21875l1.34375 1.109375l-0.296875 0.234375l-1.640625 4.96875q2.234375 2.453125 2.15625 4.375q-0.078125 2.890625 -2.0 2.890625l-1.34375 0zm-11.937485 -5.109375l7.046875 0l0 6.75l-1.484375 0l0 -0.8125l-4.078125 0l0 1.1875l-1.484375 0l0 -7.125zm1.484375 1.40625l0 3.109375l4.078125 0l0 -3.109375l-4.078125 0zm1.25 -10.90625l1.640625 0q0.734375 0.140625 0.078125 0.59375l0 1.625l3.484375 0l0 1.40625l-1.046875 0l-1.03125 3.125l2.8125 0l0 1.40625l-10.15625 0l0 -1.40625l2.8125 0l-0.890625 -3.125l-0.96875 0l0 -1.40625l3.265625 0l0 -2.21875zm2.453125 3.625l-3.046875 0l0.75 3.125l1.40625 0l0.890625 -3.125z" fill-rule="nonzero"/></g><g filter="url(#shadowFilter-p13.15)"><use xlink:href="#p13.15" transform="matrix(1.0 0.0 0.0 1.0 0.0 2.4146981627296586)"/></g><defs><filter id="shadowFilter-p13.15" filterUnits="userSpaceOnUse"><feGaussianBlur in="SourceAlpha" stdDeviation="1.399825" result="blur"/><feComponentTransfer in="blur" color-interpolation-filters="sRGB"><feFuncR type="linear" slope="0" intercept="0.0"/><feFuncG type="linear" slope="0" intercept="0.0"/><feFuncB type="linear" slope="0" intercept="0.0"/><feFuncA type="linear" slope="0.34901962" intercept="0"/></feComponentTransfer></filter></defs><g id="p13.15"><defs><linearGradient id="p13.16" gradientUnits="userSpaceOnUse" gradientTransform="matrix(14.290113683290446 0.0 0.0 14.290113683290446 0.0 0.0)" spreadMethod="pad" x1="28.49171254864052" y1="41.13760817230838" x2="28.49171254864052" y2="26.847494489017937"><stop offset="0.0" stop-color="#3e7fcd"/><stop offset="1.0" stop-color="#96c0ff"/></linearGradient></defs><path fill="url(#p13.16)" d="m365.58948 390.5806l0 0c0 -3.825592 3.1012573 -6.9268494 6.92688 -6.9268494l27.706573 0l0 0c1.8371277 0 3.598999 0.72979736 4.898041 2.028839c1.2990417 1.2990417 2.028839 3.060913 2.028839 4.8980103l0 190.35367c0 3.8255615 -3.1012573 6.926819 -6.92688 6.926819l-27.706573 0c-3.8256226 0 -6.92688 -3.1012573 -6.92688 -6.926819z" fill-rule="evenodd"/><path stroke="#4a7dba" stroke-width="1.0" stroke-linejoin="round" stroke-linecap="butt" d="m365.58948 390.5806l0 0c0 -3.825592 3.1012573 -6.9268494 6.92688 -6.9268494l27.706573 0l0 0c1.8371277 0 3.598999 0.72979736 4.898041 2.028839c1.2990417 1.2990417 2.028839 3.060913 2.028839 4.8980103l0 190.35367c0 3.8255615 -3.1012573 6.926819 -6.92688 6.926819l-27.706573 0c-3.8256226 0 -6.92688 -3.1012573 -6.92688 -6.926819z" fill-rule="evenodd"/><path fill="#ffffff" d="m378.94775 424.67743q-0.296875 0.8125 -0.515625 0.0625l-0.453125 -1.484375l4.15625 -0.140625l0 -1.34375l0.53125 0.078125l1.25 -1.265625l-3.03125 0q-1.265625 0.96875 -2.609375 1.5625l-0.734375 -1.40625q2.453125 -1.046875 4.53125 -2.96875l-4.15625 0l0 -1.1875l3.40625 0l0 -1.640625l-2.515625 0l0 -1.1875l2.515625 0l0 -2.4375l1.1875 0q0.59375 0.0625 0.078125 0.4375l0 2.0l2.078125 0l0 0.75q0.8125 -1.265625 1.484375 -2.75l1.109375 0.75q0.59375 0.296875 -0.078125 0.4375q-0.65625 1.484375 -2.375 3.640625l1.9375 0l0 1.1875l-2.828125 0q-0.734375 0.8125 -1.703125 1.625l2.453125 0l0.21875 -0.359375l1.109375 1.109375q0.375 0.59375 -0.21875 0.4375l-2.375 1.71875l0 0.734375q1.5625 -0.140625 3.859375 -0.515625l0 1.265625q-2.59375 0.359375 -3.859375 0.515625l0 2.671875q0 1.1875 -0.96875 1.1875l-1.78125 0l-0.296875 -1.40625l1.484375 0q0.296875 0 0.296875 -0.296875l0 -2.015625q-1.546875 0.15625 -3.1875 0.234375zm11.28125 -12.40625q-0.515625 2.078125 -0.8125 3.046875l5.1875 0l0 1.40625l-1.25 0q-0.375 3.5 -1.9375 6.609375q1.1875 1.78125 3.484375 3.046875l-0.953125 1.34375q-2.078125 -1.34375 -3.34375 -3.125q-1.640625 2.234375 -4.828125 3.78125l-0.890625 -1.484375q3.265625 -1.484375 4.75 -3.5625q-1.40625 -2.59375 -1.625 -4.53125l-1.125 1.78125l-0.890625 -1.1875q1.9375 -2.734375 2.90625 -8.015625l1.40625 0.453125q0.59375 0.140625 -0.078125 0.4375zm-7.125 4.3125q0.8125 -0.96875 1.265625 -1.640625l-1.78125 0l0 1.640625l0.515625 0zm7.34375 5.484375q1.046875 -2.0 1.5625 -5.34375l-3.1875 0q0.21875 2.90625 1.625 5.34375z" fill-rule="nonzero"/><path fill="#ffffff" d="m387.0415 435.0993l7.34375 0l0 1.40625l-8.90625 0l-1.484375 2.0q2.828125 -0.140625 5.34375 -0.21875q-0.8125 -0.453125 -1.5625 -0.890625l1.125 -0.75q1.78125 0.671875 4.8125 2.96875l-1.109375 1.046875q-0.890625 -0.671875 -1.703125 -1.34375q-6.15625 0.375 -10.90625 0.75q-0.375 0.375 -0.453125 0.078125l-0.4375 -1.5625q1.625 0 3.265625 -0.078125l1.40625 -2.0l-5.640625 0l0 -1.40625l7.203125 0l0 -1.859375l1.625 0q0.75 0.140625 0.078125 0.59375l0 1.265625zm-4.75 15.140625l-1.484375 0l0 -9.4375l11.125 0l0 8.09375q0 1.046875 -1.03125 1.046875l-1.859375 0l-0.21875 -1.421875l1.328125 0q0.296875 0 0.296875 -0.296875l0 -1.40625l-8.15625 0l0 3.421875zm8.15625 -4.609375l0 -1.265625l-8.15625 0l0 1.265625l8.15625 0zm-8.15625 -3.640625l0 1.1875l8.15625 0l0 -1.1875l-8.15625 0z" fill-rule="nonzero"/><path fill="#ffffff" d="m385.63525 465.11493l-3.859375 0l0 -1.1875l1.84375 0q-0.21875 -0.53125 -0.734375 -1.125l1.328125 -0.4375q0.53125 0.59375 0.96875 1.5625l2.296875 0l0.59375 -1.640625l1.265625 0.375q0.453125 0.296875 -0.078125 0.515625l-0.359375 0.75l2.140625 0l0 1.1875l-4.15625 0l0 1.546875l4.6875 0l0 1.1875l-4.75 0l-0.078125 0.453125q2.0 0.515625 4.234375 1.703125l-0.96875 1.421875q-2.15625 -1.34375 -3.5625 -2.015625q-0.890625 1.71875 -4.3125 2.75l-0.65625 -1.484375q3.78125 -0.890625 4.0 -2.828125l-4.15625 0l0 -1.1875l4.3125 0l0 -1.546875zm8.453125 5.9375q0 1.1875 -1.1875 1.1875l-1.265625 0l-0.140625 -1.40625l0.8125 0q0.296875 0 0.296875 -0.3125l0 -8.453125l-2.59375 0l-2.59375 0l0 -6.3125l6.671875 0l0 15.296875zm-10.171875 -10.171875l0 -1.34375l-3.78125 0l0 1.34375l3.78125 0zm-3.78125 -3.9375l0 1.40625l3.78125 0l0 -1.40625l-3.78125 0zm0 15.4375l-1.484375 0l0 -16.625l6.75 0l0 6.3125l-5.265625 0l0 10.3125zm12.46875 -11.5l0 -1.34375l-3.703125 0l0 1.34375l3.703125 0zm0 -2.53125l0 -1.40625l-3.703125 0l0 1.40625l3.703125 0z" fill-rule="nonzero"/><path fill="#ffffff" d="m394.979 492.45868l-0.296875 1.40625l-8.75 0q-2.96875 0 -4.75 -2.078125l-2.375 2.375l-1.125 -1.5625l2.75 -1.703125l0 -4.609375l-2.375 0l0 -1.40625l3.859375 0l0 5.9375q1.703125 1.640625 4.453125 1.640625l8.609375 0zm-7.203125 -7.28125l-2.59375 0l0 1.40625l2.59375 0l0 -1.40625zm1.484375 2.59375l0 1.125l5.28125 0l0 1.40625l-5.28125 0l0 1.5625l-1.484375 0l0 -1.5625l-5.046875 0l0 -1.40625l5.046875 0l0 -1.125l-1.921875 0l-1.9375 0l0 -6.296875l3.859375 0l0 -1.1875l-4.890625 0l0 -1.421875l4.890625 0l0 -1.625l1.421875 0q0.59375 0.078125 0.0625 0.4375l0 1.1875l4.90625 0l0 1.421875l-4.90625 0l0 1.1875l4.015625 0l0 6.296875l-4.015625 0zm2.75 -5.109375l-2.75 0l0 1.328125l2.75 0l0 -1.328125zm0 2.515625l-2.75 0l0 1.40625l2.75 0l0 -1.40625zm-4.234375 -2.515625l-2.59375 0l0 1.328125l2.59375 0l0 -1.328125zm-8.078125 -4.53125q1.546875 0.96875 2.59375 2.515625l-1.265625 1.265625q-1.109375 -1.484375 -2.453125 -2.515625l1.125 -1.265625z" fill-rule="nonzero"/><path fill="#ffffff" d="m385.26025 514.8962q0.296875 0 0.296875 -0.296875l0 -1.484375l-5.859375 0l0 -1.1875l5.859375 0l0 -1.1875l-7.796875 0l0 -1.1875l7.796875 0l0 -1.109375l-5.859375 0l0 -1.1875l5.859375 0l0 -1.046875l-2.53125 0l-2.4375 0l0 -3.1875l4.96875 0l0 -0.96875l-7.34375 0l0 -1.1875l7.34375 0l0 -1.703125l1.40625 0q0.59375 0.078125 0.078125 0.453125l0 1.25l7.125 0l0 1.1875l-7.125 0l0 0.96875l4.828125 0l0 3.1875l-4.828125 0l0 1.046875l5.71875 0l0 2.296875l2.0 0l0 1.1875l-2.0 0l0 2.828125l-1.484375 0l0 -0.453125l-4.234375 0l0 2.015625q0 1.1875 -1.1875 1.1875l-1.640625 0l-0.21875 -1.421875l1.265625 0zm-3.421875 -9.578125l3.71875 0l0 -1.40625l-3.71875 0l0 1.40625zm5.203125 0l3.5625 0l0 -1.40625l-3.5625 0l0 1.40625zm0 6.609375l4.234375 0l0 -1.1875l-4.234375 0l0 1.1875zm4.234375 -2.375l0 -1.109375l-4.234375 0l0 1.109375l4.234375 0z" fill-rule="nonzero"/><path fill="#ffffff" d="m378.51025 536.1618q4.15625 -0.96875 6.53125 -3.203125l-6.53125 0l0 -1.1875l7.1875 0l0 -1.109375l-4.8125 0l0 -1.1875l4.8125 0l0 -1.1875l-5.640625 0l0 -1.1875l3.859375 0l-0.8125 -1.40625l-4.59375 0l0 -1.1875l3.484375 0q-0.515625 -0.75 -1.34375 -1.40625l1.125 -0.890625q0.890625 0.515625 1.703125 1.625l-0.8125 0.671875l1.546875 0l0 -3.125l1.421875 0q0.59375 0.078125 0.0625 0.453125l0 2.671875l1.421875 0l0 -3.125l1.40625 0q0.59375 0.078125 0.078125 0.453125l0 2.671875l1.78125 0l-0.828125 -0.59375q0.75 -1.046875 1.34375 -1.9375l1.109375 0.75q0.515625 0.296875 -0.078125 0.375q-0.359375 0.65625 -1.03125 1.40625l3.5625 0l0 1.1875l-4.671875 0l-0.828125 1.40625l4.09375 0l0 1.1875l-5.875 0l0 1.1875l4.984375 0l0 1.1875l-4.984375 0l0 1.109375l7.359375 0l0 1.1875l-6.46875 0q2.609375 2.3125 6.53125 3.125l-0.59375 1.5625q-4.078125 -1.046875 -6.828125 -3.5625l0 4.15625l-1.484375 0l0 -4.015625q-2.59375 2.296875 -6.59375 3.421875l-0.59375 -1.484375zm6.828125 -9.0625l2.296875 0l0.734375 -1.40625l-3.859375 0l0.828125 1.40625z" fill-rule="nonzero"/><path fill="#ffffff" d="m391.33838 557.9274l-0.296875 -1.625l1.1875 0q1.046875 0 0.828125 -1.703125q-0.296875 -2.078125 -1.859375 -3.640625l1.328125 -4.96875l-2.4375 0l0 14.390625l-1.484375 0l0 -15.8125l4.375 0l0.140625 -0.21875l1.34375 1.109375l-0.296875 0.234375l-1.640625 4.96875q2.234375 2.453125 2.15625 4.375q-0.078125 2.890625 -2.0 2.890625l-1.34375 0zm-11.9375 -5.109375l7.046875 0l0 6.75l-1.484375 0l0 -0.8125l-4.078125 0l0 1.1875l-1.484375 0l0 -7.125zm1.484375 1.40625l0 3.109375l4.078125 0l0 -3.109375l-4.078125 0zm1.25 -10.90625l1.640625 0q0.734375 0.140625 0.078125 0.59375l0 1.625l3.484375 0l0 1.40625l-1.046875 0l-1.03125 3.125l2.8125 0l0 1.40625l-10.15625 0l0 -1.40625l2.8125 0l-0.890625 -3.125l-0.96875 0l0 -1.40625l3.265625 0l0 -2.21875zm2.453125 3.625l-3.046875 0l0.75 3.125l1.40625 0l0.890625 -3.125z" fill-rule="nonzero"/></g><g filter="url(#shadowFilter-p13.17)"><use xlink:href="#p13.17" transform="matrix(1.0 0.0 0.0 1.0 0.0 2.4146981627296586)"/></g><defs><filter id="shadowFilter-p13.17" filterUnits="userSpaceOnUse"><feGaussianBlur in="SourceAlpha" stdDeviation="1.399825" result="blur"/><feComponentTransfer in="blur" color-interpolation-filters="sRGB"><feFuncR type="linear" slope="0" intercept="0.0"/><feFuncG type="linear" slope="0" intercept="0.0"/><feFuncB type="linear" slope="0" intercept="0.0"/><feFuncA type="linear" slope="0.34901962" intercept="0"/></feComponentTransfer></filter></defs><g id="p13.17"><defs><linearGradient id="p13.18" gradientUnits="userSpaceOnUse" gradientTransform="matrix(14.290113683290446 0.0 0.0 14.290113683290446 0.0 0.0)" spreadMethod="pad" x1="37.6108653561747" y1="41.13760817230838" x2="37.6108653561747" y2="26.847494489017937"><stop offset="0.0" stop-color="#3e7fcd"/><stop offset="1.0" stop-color="#96c0ff"/></linearGradient></defs><path fill="url(#p13.18)" d="m495.90323 390.5806l0 0c0 -3.825592 3.1012573 -6.9268494 6.9268494 -6.9268494l27.706604 0l0 0c1.8370972 0 3.598999 0.72979736 4.8980103 2.028839c1.2990723 1.2990417 2.0288086 3.060913 2.0288086 4.8980103l0 190.35367c0 3.8255615 -3.1012573 6.926819 -6.926819 6.926819l-27.706604 0c-3.825592 0 -6.9268494 -3.1012573 -6.9268494 -6.926819z" fill-rule="evenodd"/><path stroke="#4a7dba" stroke-width="1.0" stroke-linejoin="round" stroke-linecap="butt" d="m495.90323 390.5806l0 0c0 -3.825592 3.1012573 -6.9268494 6.9268494 -6.9268494l27.706604 0l0 0c1.8370972 0 3.598999 0.72979736 4.8980103 2.028839c1.2990723 1.2990417 2.0288086 3.060913 2.0288086 4.8980103l0 190.35367c0 3.8255615 -3.1012573 6.926819 -6.926819 6.926819l-27.706604 0c-3.825592 0 -6.9268494 -3.1012573 -6.9268494 -6.926819z" fill-rule="evenodd"/><path fill="#ffffff" d="m524.324 462.06805q-2.671875 -2.0 -3.921875 -5.5l1.328125 -0.515625q1.484375 3.265625 3.71875 4.75l-1.125 1.265625zm-3.859375 2.59375q0.828125 0.890625 1.484375 2.15625l-1.1875 0.8125q-0.59375 -1.328125 -1.40625 -2.15625l1.109375 -0.8125zm-1.78125 -7.9375q0.671875 0.296875 -0.0625 0.4375q-0.96875 2.453125 -2.828125 4.75l-1.1875 -0.953125q1.703125 -1.9375 2.75 -4.75l1.328125 0.515625zm-7.1874695 6.453125l2.3749695 -0.078125l-0.375 -1.109375l1.109375 -0.375q0.671875 1.34375 1.109375 3.125l-1.25 0.375l-0.296875 -1.046875l-1.484375 0.15625l0 8.015625l-1.4843445 0l0 -7.796875l-2.15625 0.21875q-0.375 0.671875 -0.453125 -0.078125l-0.296875 -1.25l1.484375 0l1.1875 -1.640625q-0.953125 -1.109375 -2.515625 -2.0l0.890625 -1.1875l0.515625 0.296875l2.2343445 -3.5625l1.484375 0.734375q0.21875 0.15625 -0.375 0.296875l-2.2968445 3.34375l0.953125 0.8125l1.9374695 -3.03125l1.328125 0.734375q0.234375 0.15625 -0.359375 0.296875l-3.2655945 4.75zm2.5937195 6.3125q-0.21875 -1.859375 -0.890625 -3.1875l1.03125 -0.296875q0.828125 1.03125 1.125 3.109375l-1.265625 0.375zm5.125 -3.1875q0.59375 0.0625 0.0625 0.4375l0 3.34375q0 0.4375 0.453125 0.4375l1.625 0q0.671875 0 0.53125 -1.40625l1.40625 0.375q0.140625 2.234375 -1.34375 2.234375l-2.734375 0q-1.1875 0 -1.1875 -1.265625l0 -4.15625l1.1875 0zm1.703125 -4.15625l0.890625 -0.671875q1.328125 1.328125 2.0 2.515625l-1.109375 0.828125l-0.515625 -0.828125l-5.421875 0.53125q-0.21875 0.359375 -0.375 0.140625l-0.296875 -1.484375l1.40625 0l1.484375 -3.9375l1.421875 0.453125q0.296875 0.296875 -0.234375 0.375l-1.40625 3.109375l2.828125 -0.140625l-0.671875 -0.890625zm-5.859375 8.453125q0.65625 -1.78125 0.8125 -3.5625l1.328125 0.375q0.59375 0.21875 -0.0625 0.375q-0.296875 2.0 -0.828125 3.34375l-1.25 -0.53125zm-4.6874695 -4.296875q0.453125 0.140625 -0.0625 0.4375q0 1.859375 -0.53125 4.15625l-1.40625 -0.515625q0.59375 -2.296875 0.59375 -4.375l1.40625 0.296875zm13.9530945 3.921875q-0.734375 -1.484375 -1.84375 -2.96875l1.109375 -0.8125q1.03125 1.1875 2.0 2.96875l-1.265625 0.8125z" fill-rule="nonzero"/><path fill="#ffffff" d="m514.824 492.75555q3.796875 -0.59375 4.234375 -3.859375l-2.75 0l0 -1.1875l2.828125 0l0 -1.9375l1.40625 0q0.59375 0.078125 0.078125 0.453125l0 1.484375l3.640625 0l-0.234375 4.375q-0.0625 1.859375 -1.78125 1.859375l-1.484375 0l-0.296875 -1.1875l1.265625 0q0.890625 0 0.96875 -0.828125l0.140625 -3.03125l-2.296875 0q-0.296875 4.234375 -5.1875 5.421875l-0.53125 -1.5625zm6.6875 -9.359375q1.484375 1.109375 3.78125 1.703125l-0.4375 1.640625q-2.671875 -0.96875 -4.3125 -2.296875q-1.703125 1.546875 -3.9375 2.515625l-0.65625 -1.40625q1.84375 -0.671875 3.484375 -2.0q-1.109375 -1.125 -1.859375 -2.078125q-0.59375 0.8125 -1.328125 1.546875l-0.890625 -1.109375q1.84375 -1.921875 2.8125 -4.828125l1.40625 0.53125q0.296875 0.296875 -0.21875 0.359375l-0.515625 1.125l6.078125 0l0 1.1875l-1.546875 0q-0.59375 1.625 -1.859375 3.109375zm-3.125 -3.109375q0.890625 1.546875 2.078125 2.375q0.96875 -1.1875 1.484375 -2.375l-3.5625 0zm-6.4530945 7.421875q-1.109375 2.140625 -2.671875 3.921875l-1.109375 -1.1875q2.8125 -2.8125 3.640625 -5.640625l-3.34375 0l0 -1.1875l6.5312195 0l0.21875 -0.4375l1.265625 0.8125q0.296875 0.296875 -0.21875 0.375l-1.71875 3.703125l-1.03125 -1.1875l1.03125 -2.078125l-1.328125 0l0 8.328125q0 1.25 -1.109375 1.25l-1.4218445 0l-0.296875 -1.40625l1.34375 0q0.21875 0 0.21875 -0.21875l0 -5.046875zm1.2655945 -6.015625l0.8125 0.59375l-0.96875 1.1875q-1.3280945 -1.109375 -3.1874695 -2.296875l0.8125 -0.890625q0.828125 0.296875 1.5624695 0.8125l1.703125 -1.78125l-4.8905945 0l0 -1.1875l5.4843445 0l0.375 -0.375l1.1875 0.890625q0.296875 0.296875 -0.21875 0.375l-2.671875 2.671875z" fill-rule="nonzero"/><path fill="#ffffff" d="m521.6521 513.9274l-0.296875 -1.625l1.1875 0q1.046875 0 0.828125 -1.703125q-0.296875 -2.078125 -1.859375 -3.640625l1.328125 -4.96875l-2.4375 0l0 14.390625l-1.484375 0l0 -15.8125l4.375 0l0.140625 -0.21875l1.34375 1.109375l-0.296875 0.234375l-1.640625 4.96875q2.234375 2.453125 2.15625 4.375q-0.078125 2.890625 -2.0 2.890625l-1.34375 0zm-11.9374695 -5.109375l7.0468445 0l0 6.75l-1.484375 0l0 -0.8125l-4.0780945 0l0 1.1875l-1.484375 0l0 -7.125zm1.484375 1.40625l0 3.109375l4.0780945 0l0 -3.109375l-4.0780945 0zm1.2499695 -10.90625l1.640625 0q0.734375 0.140625 0.078125 0.59375l0 1.625l3.484375 0l0 1.40625l-1.046875 0l-1.03125 3.125l2.8125 0l0 1.40625l-10.1562195 0l0 -1.40625l2.8125 0l-0.890625 -3.125l-0.96875 0l0 -1.40625l3.2655945 0l0 -2.21875zm2.453125 3.625l-3.0468445 0l0.7499695 3.125l1.40625 0l0.890625 -3.125z" fill-rule="nonzero"/></g><g filter="url(#shadowFilter-p13.19)"><use xlink:href="#p13.19" transform="matrix(1.0 0.0 0.0 1.0 0.0 2.4146981627296586)"/></g><defs><filter id="shadowFilter-p13.19" filterUnits="userSpaceOnUse"><feGaussianBlur in="SourceAlpha" stdDeviation="1.399825" result="blur"/><feComponentTransfer in="blur" color-interpolation-filters="sRGB"><feFuncR type="linear" slope="0" intercept="0.0"/><feFuncG type="linear" slope="0" intercept="0.0"/><feFuncB type="linear" slope="0" intercept="0.0"/><feFuncA type="linear" slope="0.34901962" intercept="0"/></feComponentTransfer></filter></defs><g id="p13.19"><defs><linearGradient id="p13.20" gradientUnits="userSpaceOnUse" gradientTransform="matrix(14.290113683290446 0.0 0.0 14.290113683290446 0.0 0.0)" spreadMethod="pad" x1="46.97203270823798" y1="41.13760243260615" x2="46.97203270823798" y2="26.847488749315705"><stop offset="0.0" stop-color="#3e7fcd"/><stop offset="1.0" stop-color="#96c0ff"/></linearGradient></defs><path fill="url(#p13.20)" d="m629.67535 390.58054l0 0c0 -3.8256226 3.1012573 -6.92688 6.92688 -6.92688l27.706604 0l0 0c1.8370972 0 3.598999 0.72979736 4.8980103 2.028839c1.2990112 1.2990417 2.0288086 3.060913 2.0288086 4.898041l0 190.3536c0 3.8256226 -3.1012573 6.92688 -6.926819 6.92688l-27.706604 0c-3.8256226 0 -6.92688 -3.1012573 -6.92688 -6.92688z" fill-rule="evenodd"/><path stroke="#4a7dba" stroke-width="1.0" stroke-linejoin="round" stroke-linecap="butt" d="m629.67535 390.58054l0 0c0 -3.8256226 3.1012573 -6.92688 6.92688 -6.92688l27.706604 0l0 0c1.8370972 0 3.598999 0.72979736 4.8980103 2.028839c1.2990112 1.2990417 2.0288086 3.060913 2.0288086 4.898041l0 190.3536c0 3.8256226 -3.1012573 6.92688 -6.926819 6.92688l-27.706604 0c-3.8256226 0 -6.92688 -3.1012573 -6.92688 -6.92688z" fill-rule="evenodd"/><path fill="#ffffff" d="m645.6274 414.56796l1.78125 -0.078125q1.5625 -3.9375 2.90625 -9.203125l2.0 0.671875q0.8125 0.296875 -0.375 0.59375q-1.40625 3.921875 -2.8125 7.859375l6.453125 -0.59375q-1.484375 -2.296875 -2.453125 -3.5625l1.34375 -0.890625q2.59375 2.96875 4.21875 6.53125l-1.546875 1.125q-0.53125 -1.046875 -0.890625 -1.796875l-9.203125 1.125q-0.453125 0.890625 -0.828125 0l-0.59375 -1.78125zm5.9375 -11.8125l6.609375 0l0 1.640625l-12.90625 0l0 5.421875q0 4.515625 -1.9375 7.5l-1.1875 -1.34375q1.640625 -2.453125 1.640625 -6.53125l0 -6.6875l6.078125 0l0 -2.59375l1.640625 0q0.59375 0.078125 0.0625 0.453125l0 2.140625z" fill-rule="nonzero"/><path fill="#ffffff" d="m657.79926 426.69296q0 1.265625 -1.1875 1.265625l-1.703125 0l-0.296875 -1.421875l1.484375 0q0.21875 0 0.21875 -0.21875l0 -1.703125l-3.859375 0l0 4.375l4.75 0l0.234375 -0.296875l1.1875 0.75q0.296875 0.296875 -0.234375 0.359375q-0.4375 3.046875 -1.78125 5.640625q0.890625 1.265625 2.609375 2.3125l-0.890625 1.40625q-1.421875 -0.96875 -2.53125 -2.375q-1.109375 1.5625 -2.375 2.53125l-0.890625 -1.421875q1.265625 -0.96875 2.296875 -2.296875q-1.1875 -2.234375 -1.703125 -5.203125l-0.671875 0l0 8.921875l-1.484375 0l0 -16.109375l6.828125 0l0 3.484375zm-8.015625 -0.8125l-2.671875 0l0 1.703125l3.421875 0l0 1.40625l-1.265625 0l-1.03125 2.15625l1.921875 0l0 1.40625l-3.046875 0l0 1.703125l3.046875 0l0 1.421875l-3.046875 0l0 3.703125l-1.484375 0l0 -3.703125l-3.265625 0l0 -1.421875l3.265625 0l0 -1.703125l-3.265625 0l0 -1.40625l2.078125 0l-0.953125 -2.15625l-1.640625 0l0 -1.40625l3.78125 0l0 -1.703125l-2.8125 0l0 -1.421875l2.8125 0l0 -2.140625l1.421875 0q0.59375 0.0625 0.0625 0.4375l0 1.703125l2.671875 0l0 1.421875zm-3.859375 5.265625l0.96875 0l0.8125 -2.15625l-2.671875 0l0.890625 2.15625zm8.46875 -0.75q0.21875 1.78125 1.328125 3.859375q0.890625 -1.78125 1.1875 -3.859375l-2.515625 0z" fill-rule="nonzero"/><path fill="#ffffff" d="m652.018 451.2086l0 3.203125l-3.1875 0l0 -3.203125l3.1875 0z" fill-rule="nonzero"/><path fill="#ffffff" d="m645.1899 468.23984q0.59375 0.078125 0.078125 0.453125l0 4.0l4.375 0l0 -5.9375l1.40625 0q0.59375 0.078125 0.078125 0.453125l0 5.484375l4.296875 0l0 -4.375l1.421875 0q0.59375 0.078125 0.0625 0.4375l0 6.015625l-1.484375 0l0 -0.671875l-4.296875 0l0 6.390625l4.890625 0l0 -4.53125l1.421875 0q0.59375 0.078125 0.0625 0.453125l0 6.3125l-1.484375 0l0 -0.828125l-11.5 0l0 1.046875l-1.484375 0l0 -7.0625l1.40625 0q0.59375 0.078125 0.078125 0.453125l0 4.15625l5.125 0l0 -6.390625l-4.375 0l0 0.828125l-1.484375 0l0 -6.6875l1.40625 0z" fill-rule="nonzero"/><path fill="#ffffff" d="m651.5024 499.2242q0 3.9375 -2.15625 6.015625l-1.046875 -1.109375q1.71875 -2.09375 1.71875 -4.828125l0 -10.09375l8.453125 0l0 1.40625l-6.96875 0l0 3.265625l4.75 0l0.359375 -0.375l1.421875 1.046875q0.296875 0.140625 -0.296875 0.59375q-0.53125 3.484375 -2.015625 6.0q1.421875 1.265625 3.5 2.3125l-0.890625 1.328125q-1.859375 -1.03125 -3.421875 -2.515625q-1.40625 1.78125 -3.34375 2.96875l-0.8125 -1.265625q2.0 -1.265625 3.1875 -2.890625q-1.484375 -2.609375 -1.625 -5.796875l-0.8125 0l0 3.9375zm-4.015625 -10.6875q0.59375 0.078125 0.078125 0.4375l0 4.53125l1.78125 0l0 1.40625l-4.828125 0l0 2.453125l3.34375 0l0 7.953125l-1.484375 0l0 -6.546875l-1.859375 0l0 2.078125q0 2.234375 -1.328125 4.46875l-1.34375 -0.96875q1.1875 -1.421875 1.1875 -4.390625l0 -10.75l1.40625 0q0.59375 0.0625 0.078125 0.4375l0 3.859375l1.5625 0l0 -4.96875l1.40625 0zm7.34375 11.359375q0.96875 -1.71875 1.34375 -4.609375l-2.53125 0q0.234375 2.828125 1.1875 4.609375z" fill-rule="nonzero"/><path fill="#ffffff" d="m649.3461 525.8961q0.296875 0 0.296875 -0.296875l0 -1.484375l-5.859375 0l0 -1.1875l5.859375 0l0 -1.1875l-7.796875 0l0 -1.1875l7.796875 0l0 -1.109375l-5.859375 0l0 -1.1875l5.859375 0l0 -1.046875l-2.53125 0l-2.4375 0l0 -3.1875l4.96875 0l0 -0.96875l-7.34375 0l0 -1.1875305l7.34375 0l0 -1.703125l1.40625 0q0.59375 0.078125 0.078125 0.453125l0 1.25l7.125 0l0 1.1875305l-7.125 0l0 0.96875l4.828125 0l0 3.1875l-4.828125 0l0 1.046875l5.71875 0l0 2.296875l2.0 0l0 1.1875l-2.0 0l0 2.828125l-1.484375 0l0 -0.453125l-4.234375 0l0 2.015625q0 1.1875 -1.1875 1.1875l-1.640625 0l-0.21875 -1.421875l1.265625 0zm-3.421875 -9.578125l3.71875 0l0 -1.40625l-3.71875 0l0 1.40625zm5.203125 0l3.5625 0l0 -1.40625l-3.5625 0l0 1.40625zm0 6.609375l4.234375 0l0 -1.1875l-4.234375 0l0 1.1875zm4.234375 -2.375l0 -1.109375l-4.234375 0l0 1.109375l4.234375 0z" fill-rule="nonzero"/><path fill="#ffffff" d="m642.5961 547.16174q4.15625 -0.96875 6.53125 -3.203125l-6.53125 0l0 -1.1875l7.1875 0l0 -1.109375l-4.8125 0l0 -1.1875l4.8125 0l0 -1.1875l-5.640625 0l0 -1.1875l3.859375 0l-0.8125 -1.40625l-4.59375 0l0 -1.1875l3.484375 0q-0.515625 -0.75 -1.34375 -1.40625l1.125 -0.890625q0.890625 0.515625 1.703125 1.625l-0.8125 0.671875l1.546875 0l0 -3.125l1.421875 0q0.59375 0.078125 0.0625 0.453125l0 2.671875l1.421875 0l0 -3.125l1.40625 0q0.59375 0.078125 0.078125 0.453125l0 2.671875l1.78125 0l-0.828125 -0.59375q0.75 -1.046875 1.34375 -1.9375l1.109375 0.75q0.515625 0.296875 -0.078125 0.375q-0.359375 0.65625 -1.03125 1.40625l3.5625 0l0 1.1875l-4.671875 0l-0.828125 1.40625l4.09375 0l0 1.1875l-5.875 0l0 1.1875l4.984375 0l0 1.1875l-4.984375 0l0 1.109375l7.359375 0l0 1.1875l-6.46875 0q2.609375 2.3125 6.53125 3.125l-0.59375 1.5625q-4.078125 -1.046875 -6.828125 -3.5625l0 4.15625l-1.484375 0l0 -4.015625q-2.59375 2.296875 -6.59375 3.421875l-0.59375 -1.484375zm6.828125 -9.0625l2.296875 0l0.734375 -1.40625l-3.859375 0l0.828125 1.40625z" fill-rule="nonzero"/><path fill="#ffffff" d="m655.42426 568.92737l-0.296875 -1.625l1.1875 0q1.046875 0 0.828125 -1.703125q-0.296875 -2.078125 -1.859375 -3.640625l1.328125 -4.96875l-2.4375 0l0 14.390625l-1.484375 0l0 -15.8125l4.375 0l0.140625 -0.21875l1.34375 1.109375l-0.296875 0.234375l-1.640625 4.96875q2.234375 2.453125 2.15625 4.375q-0.078125 2.890625 -2.0 2.890625l-1.34375 0zm-11.9375 -5.109375l7.046875 0l0 6.75l-1.484375 0l0 -0.8125l-4.078125 0l0 1.1875l-1.484375 0l0 -7.125zm1.484375 1.40625l0 3.109375l4.078125 0l0 -3.109375l-4.078125 0zm1.25 -10.90625l1.640625 0q0.734375 0.140625 0.078125 0.59375l0 1.625l3.484375 0l0 1.40625l-1.046875 0l-1.03125 3.125l2.8125 0l0 1.40625l-10.15625 0l0 -1.40625l2.8125 0l-0.890625 -3.125l-0.96875 0l0 -1.40625l3.265625 0l0 -2.21875zm2.453125 3.625l-3.046875 0l0.75 3.125l1.40625 0l0.890625 -3.125z" fill-rule="nonzero"/></g><g filter="url(#shadowFilter-p13.21)"><use xlink:href="#p13.21" transform="matrix(1.0 0.0 0.0 1.0 0.0 2.4146981627296586)"/></g><defs><filter id="shadowFilter-p13.21" filterUnits="userSpaceOnUse"><feGaussianBlur in="SourceAlpha" stdDeviation="1.399825" result="blur"/><feComponentTransfer in="blur" color-interpolation-filters="sRGB"><feFuncR type="linear" slope="0" intercept="0.0"/><feFuncG type="linear" slope="0" intercept="0.0"/><feFuncB type="linear" slope="0" intercept="0.0"/><feFuncA type="linear" slope="0.34901962" intercept="0"/></feComponentTransfer></filter></defs><g id="p13.21"><defs><linearGradient id="p13.22" gradientUnits="userSpaceOnUse" gradientTransform="matrix(14.290113683290446 0.0 0.0 14.290113683290446 0.0 0.0)" spreadMethod="pad" x1="55.88809476191599" y1="41.13760817230838" x2="55.88809476191599" y2="26.847494489017937"><stop offset="0.0" stop-color="#3e7fcd"/><stop offset="1.0" stop-color="#96c0ff"/></linearGradient></defs><path fill="url(#p13.22)" d="m757.0869 390.5806l0 0c0 -3.825592 3.1013184 -6.9268494 6.92688 -6.9268494l27.706604 0l0 0c1.8370972 0 3.598999 0.72979736 4.8980103 2.028839c1.2990723 1.2990417 2.0288696 3.060913 2.0288696 4.8980103l0 190.35367c0 3.8255615 -3.1012573 6.926819 -6.92688 6.926819l-27.706604 0c-3.8255615 0 -6.92688 -3.1012573 -6.92688 -6.926819z" fill-rule="evenodd"/><path stroke="#4a7dba" stroke-width="1.0" stroke-linejoin="round" stroke-linecap="butt" d="m757.0869 390.5806l0 0c0 -3.825592 3.1013184 -6.9268494 6.92688 -6.9268494l27.706604 0l0 0c1.8370972 0 3.598999 0.72979736 4.8980103 2.028839c1.2990723 1.2990417 2.0288696 3.060913 2.0288696 4.8980103l0 190.35367c0 3.8255615 -3.1012573 6.926819 -6.92688 6.926819l-27.706604 0c-3.8255615 0 -6.92688 -3.1012573 -6.92688 -6.926819z" fill-rule="evenodd"/><path fill="#ffffff" d="m784.3984 416.36493l0 4.15625l1.9375 0l0 1.40625l-1.9375 0l-0.140625 2.8125l1.546875 0l0 1.421875l-1.625 0l-0.15625 1.109375q-0.140625 1.046875 -1.109375 1.046875l-2.0 0l-0.296875 -1.421875l1.625 0q0.296875 0 0.375 -0.296875l0.078125 -0.4375l-6.75 0l-0.15625 1.109375l-1.484375 0l0.59375 -5.34375l-1.78125 0l0 -1.40625l1.859375 0l0.21875 -3.640625q-0.59375 0.671875 -1.1875 1.1875l-1.109375 -1.265625q2.515625 -2.15625 3.640625 -5.640625l1.546875 0.515625q0.375 0.15625 -0.21875 0.375l-0.515625 1.265625l8.390625 0l0 1.40625l-9.0625 0q-0.515625 0.96875 -1.1875 1.640625l8.90625 0zm-4.0 5.5625l-0.234375 2.8125l2.609375 0l0.140625 -2.8125l-2.515625 0zm-3.71875 -4.15625l-0.21875 2.75l2.515625 0l0.078125 -2.75l-2.375 0zm3.78125 2.75l2.453125 0l0 -2.75l-2.375 0l-0.078125 2.75zm-1.546875 1.40625l-2.53125 0l-0.21875 2.8125l2.515625 0l0.234375 -2.8125zm-9.65625 4.828125q1.640625 -2.234375 2.59375 -5.28125l1.265625 0.96875q-0.515625 2.375 -2.15625 5.125q0.078125 0.75 -0.359375 0.375l-1.34375 -1.1875zm2.75 -7.0625q-1.1875 -1.03125 -2.671875 -1.84375l1.03125 -1.421875q1.5625 0.75 2.671875 1.78125l-1.03125 1.484375zm0.734375 -4.453125q-1.25 -1.109375 -2.734375 -2.0l1.1875 -1.40625q1.84375 1.03125 2.8125 1.921875l-1.265625 1.484375z" fill-rule="nonzero"/><path fill="#ffffff" d="m770.2265 448.38055q2.453125 -1.5625 4.296875 -4.90625q-1.484375 -1.328125 -2.4375 -1.921875q-0.53125 1.265625 -1.421875 2.296875l-1.328125 -0.96875q2.453125 -3.03125 3.1875 -8.15625l1.5625 0.4375q0.375 0.296875 -0.15625 0.53125l-0.296875 1.40625l2.828125 0l0.296875 -0.296875l1.03125 0.890625q0.234375 0.21875 -0.140625 0.4375q-1.109375 7.875 -6.453125 11.59375l-0.96875 -1.34375zm14.921875 -3.125q-2.15625 -1.484375 -3.203125 -2.4375l0 7.203125l-1.484375 0l0 -8.6875q-1.40625 -1.78125 -2.515625 -3.71875l1.1875 -0.890625q0.671875 1.1875 1.328125 2.078125l0 -5.125l1.421875 0q0.59375 0.078125 0.0625 0.453125l0 6.375q0.53125 1.046875 4.3125 3.265625l-1.109375 1.484375zm-10.03125 -3.265625q0.671875 -1.703125 0.96875 -3.484375l-2.8125 0l-0.59375 1.640625q0.953125 0.59375 2.4375 1.84375z" fill-rule="nonzero"/><path fill="#ffffff" d="m786.4765 470.45868l-0.296875 1.40625l-8.75 0q-2.96875 0 -4.75 -2.078125l-2.375 2.375l-1.125 -1.5625l2.75 -1.703125l0 -4.609375l-2.375 0l0 -1.40625l3.859375 0l0 5.9375q1.703125 1.640625 4.453125 1.640625l8.609375 0zm-7.203125 -7.28125l-2.59375 0l0 1.40625l2.59375 0l0 -1.40625zm1.484375 2.59375l0 1.125l5.28125 0l0 1.40625l-5.28125 0l0 1.5625l-1.484375 0l0 -1.5625l-5.046875 0l0 -1.40625l5.046875 0l0 -1.125l-1.921875 0l-1.9375 0l0 -6.296875l3.859375 0l0 -1.1875l-4.890625 0l0 -1.421875l4.890625 0l0 -1.625l1.421875 0q0.59375 0.078125 0.0625 0.4375l0 1.1875l4.90625 0l0 1.421875l-4.90625 0l0 1.1875l4.015625 0l0 6.296875l-4.015625 0zm2.75 -5.109375l-2.75 0l0 1.328125l2.75 0l0 -1.328125zm0 2.515625l-2.75 0l0 1.40625l2.75 0l0 -1.40625zm-4.234375 -2.515625l-2.59375 0l0 1.328125l2.59375 0l0 -1.328125zm-8.078125 -4.53125q1.546875 0.96875 2.59375 2.515625l-1.265625 1.265625q-1.109375 -1.484375 -2.453125 -2.515625l1.125 -1.265625z" fill-rule="nonzero"/><path fill="#ffffff" d="m781.8046 479.45868l4.0 0l0 1.1875l-4.21875 0l0 0.96875l3.40625 0l0 1.1875l-3.40625 0l0 0.96875l3.40625 0l0 1.1875l-3.40625 0l0 0.96875l4.75 0l0 1.1875l-8.84375 0l0 0.359375l-1.25 0l0 -5.1875q-0.671875 0.96875 -1.421875 1.703125l-0.890625 -1.1875l0.59375 -0.59375l-1.484375 0l0 3.859375l2.078125 -0.59375l0.296875 1.265625l-2.375 0.734375l0 5.578125q0 1.1875 -1.1875 1.1875l-1.328125 0l-0.21875 -1.40625l0.953125 0q0.296875 0 0.296875 -0.3125l0 -4.59375l-1.484375 0.375q-0.0625 0.515625 -0.359375 0.21875l-0.453125 -1.640625l2.296875 -0.515625l0 -4.15625l-1.703125 0l0 -1.40625l1.703125 0l0 -3.34375l1.421875 0q0.59375 0.078125 0.0625 0.453125l0 2.890625l1.640625 0l0 1.265625q1.78125 -2.015625 2.515625 -4.828125l1.484375 0.375q0.296875 0.296875 -0.21875 0.359375q-0.140625 0.671875 -0.59375 1.484375l2.453125 0q0.734375 -1.328125 1.03125 -2.140625l1.484375 0.4375q0.296875 0.296875 -0.21875 0.375l-0.8125 1.328125zm2.59375 11.4375l-1.921875 0l-0.234375 0.515625l-1.1875 -0.4375l0.75 -1.71875l-2.296875 0l-0.15625 0.96875q-0.4375 2.90625 -4.890625 4.234375l-0.671875 -1.328125q3.859375 -1.046875 4.15625 -3.28125l0.078125 -0.59375l-2.375 0l0 -1.1875l7.9375 0l-0.59375 1.640625l2.96875 0l-0.21875 2.296875q-0.234375 2.234375 -2.3125 2.234375l-2.59375 0l-0.21875 -1.40625l2.515625 0q1.125 0 1.1875 -0.828125l0.078125 -1.109375zm-6.90625 -9.28125l2.828125 0l0 -0.96875l-2.828125 0l0 0.96875zm0 2.15625l2.828125 0l0 -0.96875l-2.828125 0l0 0.96875zm0 2.15625l2.828125 0l0 -0.96875l-2.828125 0l0 0.96875z" fill-rule="nonzero"/><path fill="#ffffff" d="m776.75775 514.8962q0.296875 0 0.296875 -0.296875l0 -1.484375l-5.859375 0l0 -1.1875l5.859375 0l0 -1.1875l-7.796875 0l0 -1.1875l7.796875 0l0 -1.109375l-5.859375 0l0 -1.1875l5.859375 0l0 -1.046875l-2.53125 0l-2.4375 0l0 -3.1875l4.96875 0l0 -0.96875l-7.34375 0l0 -1.1875l7.34375 0l0 -1.703125l1.40625 0q0.59375 0.078125 0.078125 0.453125l0 1.25l7.125 0l0 1.1875l-7.125 0l0 0.96875l4.828125 0l0 3.1875l-4.828125 0l0 1.046875l5.71875 0l0 2.296875l2.0 0l0 1.1875l-2.0 0l0 2.828125l-1.484375 0l0 -0.453125l-4.234375 0l0 2.015625q0 1.1875 -1.1875 1.1875l-1.640625 0l-0.21875 -1.421875l1.265625 0zm-3.421875 -9.578125l3.71875 0l0 -1.40625l-3.71875 0l0 1.40625zm5.203125 0l3.5625 0l0 -1.40625l-3.5625 0l0 1.40625zm0 6.609375l4.234375 0l0 -1.1875l-4.234375 0l0 1.1875zm4.234375 -2.375l0 -1.109375l-4.234375 0l0 1.109375l4.234375 0z" fill-rule="nonzero"/><path fill="#ffffff" d="m770.00775 536.1618q4.15625 -0.96875 6.53125 -3.203125l-6.53125 0l0 -1.1875l7.1875 0l0 -1.109375l-4.8125 0l0 -1.1875l4.8125 0l0 -1.1875l-5.640625 0l0 -1.1875l3.859375 0l-0.8125 -1.40625l-4.59375 0l0 -1.1875l3.484375 0q-0.515625 -0.75 -1.34375 -1.40625l1.125 -0.890625q0.890625 0.515625 1.703125 1.625l-0.8125 0.671875l1.546875 0l0 -3.125l1.421875 0q0.59375 0.078125 0.0625 0.453125l0 2.671875l1.421875 0l0 -3.125l1.40625 0q0.59375 0.078125 0.078125 0.453125l0 2.671875l1.78125 0l-0.828125 -0.59375q0.75 -1.046875 1.34375 -1.9375l1.109375 0.75q0.515625 0.296875 -0.078125 0.375q-0.359375 0.65625 -1.03125 1.40625l3.5625 0l0 1.1875l-4.671875 0l-0.828125 1.40625l4.09375 0l0 1.1875l-5.875 0l0 1.1875l4.984375 0l0 1.1875l-4.984375 0l0 1.109375l7.359375 0l0 1.1875l-6.46875 0q2.609375 2.3125 6.53125 3.125l-0.59375 1.5625q-4.078125 -1.046875 -6.828125 -3.5625l0 4.15625l-1.484375 0l0 -4.015625q-2.59375 2.296875 -6.59375 3.421875l-0.59375 -1.484375zm6.828125 -9.0625l2.296875 0l0.734375 -1.40625l-3.859375 0l0.828125 1.40625z" fill-rule="nonzero"/><path fill="#ffffff" d="m782.8359 557.9274l-0.296875 -1.625l1.1875 0q1.046875 0 0.828125 -1.703125q-0.296875 -2.078125 -1.859375 -3.640625l1.328125 -4.96875l-2.4375 0l0 14.390625l-1.484375 0l0 -15.8125l4.375 0l0.140625 -0.21875l1.34375 1.109375l-0.296875 0.234375l-1.640625 4.96875q2.234375 2.453125 2.15625 4.375q-0.078125 2.890625 -2.0 2.890625l-1.34375 0zm-11.9375 -5.109375l7.046875 0l0 6.75l-1.484375 0l0 -0.8125l-4.078125 0l0 1.1875l-1.484375 0l0 -7.125zm1.484375 1.40625l0 3.109375l4.078125 0l0 -3.109375l-4.078125 0zm1.25 -10.90625l1.640625 0q0.734375 0.140625 0.078125 0.59375l0 1.625l3.484375 0l0 1.40625l-1.046875 0l-1.03125 3.125l2.8125 0l0 1.40625l-10.15625 0l0 -1.40625l2.8125 0l-0.890625 -3.125l-0.96875 0l0 -1.40625l3.265625 0l0 -2.21875zm2.453125 3.625l-3.046875 0l0.75 3.125l1.40625 0l0.890625 -3.125z" fill-rule="nonzero"/></g><g filter="url(#shadowFilter-p13.23)"><use xlink:href="#p13.23" transform="matrix(1.0 0.0 0.0 1.0 0.0 2.4146981627296586)"/></g><defs><filter id="shadowFilter-p13.23" filterUnits="userSpaceOnUse"><feGaussianBlur in="SourceAlpha" stdDeviation="1.399825" result="blur"/><feComponentTransfer in="blur" color-interpolation-filters="sRGB"><feFuncR type="linear" slope="0" intercept="0.0"/><feFuncG type="linear" slope="0" intercept="0.0"/><feFuncB type="linear" slope="0" intercept="0.0"/><feFuncA type="linear" slope="0.34901962" intercept="0"/></feComponentTransfer></filter></defs><g id="p13.23"><defs><linearGradient id="p13.24" gradientUnits="userSpaceOnUse" gradientTransform="matrix(14.290113683290446 0.0 0.0 14.290113683290446 0.0 0.0)" spreadMethod="pad" x1="65.1339285373691" y1="41.13760243260615" x2="65.1339285373691" y2="26.847488749315705"><stop offset="0.0" stop-color="#3e7fcd"/><stop offset="1.0" stop-color="#96c0ff"/></linearGradient></defs><path fill="url(#p13.24)" d="m889.21094 390.58054l0 0c0 -3.8256226 3.1012573 -6.92688 6.92688 -6.92688l27.706604 0l0 0c1.8370972 0 3.598999 0.72979736 4.8980103 2.028839c1.2990723 1.2990417 2.0288696 3.060913 2.0288696 4.898041l0 190.3536c0 3.8256226 -3.1013184 6.92688 -6.92688 6.92688l-27.706604 0c-3.8256226 0 -6.92688 -3.1012573 -6.92688 -6.92688z" fill-rule="evenodd"/><path stroke="#4a7dba" stroke-width="1.0" stroke-linejoin="round" stroke-linecap="butt" d="m889.21094 390.58054l0 0c0 -3.8256226 3.1012573 -6.92688 6.92688 -6.92688l27.706604 0l0 0c1.8370972 0 3.598999 0.72979736 4.8980103 2.028839c1.2990723 1.2990417 2.0288696 3.060913 2.0288696 4.898041l0 190.3536c0 3.8256226 -3.1013184 6.92688 -6.92688 6.92688l-27.706604 0c-3.8256226 0 -6.92688 -3.1012573 -6.92688 -6.92688z" fill-rule="evenodd"/><path fill="#ffffff" d="m917.1161 406.9117q-0.515625 1.9375 -1.921875 1.9375l-2.828125 0q-1.40625 0 -1.40625 -1.40625l0 -3.640625l-2.375 0l0 0.890625q0 3.34375 -4.90625 5.046875l-0.734375 -1.40625q4.15625 -1.265625 4.15625 -3.640625l0 -0.890625l-3.421875 0l0 2.515625l-1.703125 0l0 -3.921875l7.125 0l0 -2.078125l1.640625 0q0.59375 0.0625 0.0625 0.4375l0 1.640625l7.125 0l0 3.484375l-1.703125 0l0 -2.078125l-3.78125 0l0 3.109375q0 0.53125 0.671875 0.53125l1.625 0q0.75 0 0.96875 -1.125l1.40625 0.59375zm1.109375 8.3125l0 1.640625l-16.46875 0l0 -1.640625l7.421875 0l0 -3.1875l-5.640625 0l0 -1.625l12.765625 0l0 1.625l-5.640625 0l0 3.1875l7.5625 0z" fill-rule="nonzero"/><path fill="#ffffff" d="m914.7411 437.5992q0.671875 0 0.8125 -0.515625l0.375 -1.109375l1.484375 0.59375l-0.21875 0.8125q-0.453125 1.640625 -1.703125 1.640625l-5.875 0q-1.25 0 -1.25 -1.34375l0 -3.78125l4.890625 0l0 -1.1875l-4.890625 0q-1.046875 1.03125 -2.609375 2.078125l-0.59375 -1.640625q2.90625 -1.703125 4.09375 -4.0l-3.5625 0l0 -1.421875l3.265625 0l0 -1.78125l-2.609375 0l0 -1.40625l2.609375 0l0 -2.21875l1.40625 0q0.59375 0.0625 0.078125 0.4375l0 1.78125l2.296875 0l0 -2.21875l1.40625 0q0.59375 0.0625 0.078125 0.4375l0 1.78125l2.96875 0l0 1.40625l-2.96875 0l0 1.78125l3.78125 0l0 1.421875l-3.484375 0q1.109375 1.921875 4.0 3.328125l-0.734375 1.5625q-2.0 -0.96875 -3.046875 -2.21875l0 3.78125l-1.484375 0l0 -0.296875l-3.40625 0l0 1.703125q0 0.59375 0.515625 0.59375l4.375 0zm-11.359375 -14.625q1.71875 1.046875 2.375 1.859375l-1.109375 1.484375q-0.890625 -0.890625 -2.375 -2.0l1.109375 -1.34375zm-2.0 14.859375q1.484375 -2.609375 2.234375 -5.65625l1.25 0.828125q-0.515625 2.734375 -1.703125 5.5625q0.15625 1.109375 -0.515625 0.453125l-1.265625 -1.1875zm1.34375 -10.46875q1.84375 1.109375 2.375 1.84375l-1.046875 1.5625q-0.8125 -0.890625 -2.375 -2.0l1.046875 -1.40625zm7.71875 -1.421875l0 1.78125l2.296875 0l0 -1.78125l-2.296875 0zm0.359375 3.203125q-0.515625 1.109375 -1.40625 2.140625l4.90625 0q-0.96875 -1.109375 -1.34375 -2.140625l-2.15625 0z" fill-rule="nonzero"/><path fill="#ffffff" d="m912.66296 447.7242q0.515625 1.5625 1.5625 2.75q0.734375 -0.890625 1.1875 -2.75l-2.75 0zm0.453125 -1.1875l4.890625 0l0 1.1875l-1.265625 0q-0.359375 2.296875 -1.40625 3.640625q1.046875 0.890625 3.265625 1.328125l-0.4375 1.484375q-2.375 -0.65625 -3.796875 -1.84375q-1.78125 1.328125 -4.21875 1.921875l-0.59375 -1.328125q2.375 -0.59375 3.703125 -1.5625q-1.03125 -1.484375 -1.484375 -2.75q-0.375 0.890625 -1.109375 1.703125l-0.75 -1.03125q1.78125 -2.0 2.375 -5.046875l1.484375 0.4375q0.296875 0.296875 -0.21875 0.375l-0.4375 1.484375zm-3.9375 6.609375q-1.5625 -1.046875 -2.078125 -1.265625l0 2.296875l-1.265625 0l0 -2.296875q-1.265625 1.34375 -3.5625 2.375l-0.671875 -1.40625q2.234375 -0.8125 3.9375 -2.15625l-2.59375 0l0 -3.1875l2.890625 0l0 -0.890625l-3.859375 0l0 -1.1875l3.859375 0l0 -1.1875l1.1875 0q0.59375 0.078125 0.078125 0.4375l0 0.75l3.703125 0l0 1.1875l-3.703125 0l0 0.890625l2.75 0l0 3.1875l-2.75 0q1.328125 0.375 2.8125 1.265625l-0.734375 1.1875zm-3.34375 -3.34375l0 -1.40625l-1.859375 0l0 1.40625l1.859375 0zm2.96875 0l0 -1.40625l-1.703125 0l0 1.40625l1.703125 0zm2.078125 7.34375l4.671875 0l0 1.1875l-4.671875 0l0 1.421875l7.046875 0l0 1.1875l-16.03125 0l0 -1.1875l3.34375 0l0 -2.96875l1.1875 0q0.59375 0.0625 0.078125 0.4375l0 2.53125l3.109375 0l0 -3.796875l-6.671875 0l0 -1.1875l14.03125 0l0 1.1875l-6.09375 0l0 1.1875z" fill-rule="nonzero"/><path fill="#ffffff" d="m905.7567 467.13046q-0.4375 2.890625 -0.953125 4.234375l0.296875 0.0625q0.21875 0.234375 -0.15625 0.453125l0 11.4375l-1.484375 0l0 -9.0625q-0.21875 0.59375 -1.109375 1.625l-0.96875 -1.25q2.453125 -2.75 3.046875 -8.171875l1.484375 0.21875q0.21875 0.234375 -0.15625 0.453125zm2.375 10.90625q0 3.125 -1.546875 4.984375l-1.265625 -1.046875q1.328125 -1.640625 1.328125 -5.203125l0 -5.34375l2.75 0l0 -1.625l-3.265625 0l0 -1.40625l3.265625 0l0 -2.015625l1.40625 0q0.59375 0.078125 0.078125 0.453125l0 1.5625l2.375 0l0 -2.015625l1.40625 0q0.59375 0.078125 0.078125 0.453125l0 1.5625l3.046875 0l0 1.40625l-3.046875 0l0 1.625l3.5625 0l0 1.421875l-10.171875 0l0 5.1875zm7.875 0.671875l0 -1.1875l-2.15625 0l0 1.1875l2.15625 0zm-5.5625 -1.1875l0 1.1875l2.140625 0l0 -1.1875l-2.140625 0zm0 -2.453125l0 1.265625l2.140625 0l0 -1.265625l-2.140625 0zm3.40625 1.265625l2.15625 0l0 -1.265625l-2.15625 0l0 1.265625zm1.859375 5.640625q0.296875 0 0.296875 -0.296875l0 -1.78125l-2.15625 0l0 2.96875l-1.265625 0l0 -2.96875l-2.140625 0l0 3.484375l-1.265625 0l0 -9.5l8.09375 0l0 8.25q0 1.03125 -0.890625 1.03125l-1.265625 0l-0.296875 -1.1875l0.890625 0zm-4.828125 -12.171875l0 1.625l2.375 0l0 -1.625l-2.375 0z" fill-rule="nonzero"/><path fill="#ffffff" d="m909.2567 498.11484l-3.859375 0l0 -1.1875l1.84375 0q-0.21875 -0.53125 -0.734375 -1.125l1.328125 -0.4375q0.53125 0.59375 0.96875 1.5625l2.296875 0l0.59375 -1.640625l1.265625 0.375q0.453125 0.296875 -0.078125 0.515625l-0.359375 0.75l2.140625 0l0 1.1875l-4.15625 0l0 1.546875l4.6875 0l0 1.1875l-4.75 0l-0.078125 0.453125q2.0 0.515625 4.234375 1.703125l-0.96875 1.421875q-2.15625 -1.34375 -3.5625 -2.015625q-0.890625 1.71875 -4.3125 2.75l-0.65625 -1.484375q3.78125 -0.890625 4.0 -2.828125l-4.15625 0l0 -1.1875l4.3125 0l0 -1.546875zm8.453125 5.9375q0 1.1875 -1.1875 1.1875l-1.265625 0l-0.140625 -1.40625l0.8125 0q0.296875 0 0.296875 -0.3125l0 -8.453125l-2.59375 0l-2.59375 0l0 -6.3125l6.671875 0l0 15.296875zm-10.171875 -10.171875l0 -1.34375l-3.78125 0l0 1.34375l3.78125 0zm-3.78125 -3.9375l0 1.40625l3.78125 0l0 -1.40625l-3.78125 0zm0 15.4375l-1.484375 0l0 -16.625l6.75 0l0 6.3125l-5.265625 0l0 10.3125zm12.46875 -11.5l0 -1.34375l-3.703125 0l0 1.34375l3.703125 0zm0 -2.53125l0 -1.40625l-3.703125 0l0 1.40625l3.703125 0z" fill-rule="nonzero"/><path fill="#ffffff" d="m918.60046 525.4586l-0.296875 1.40625l-8.75 0q-2.96875 0 -4.75 -2.078125l-2.375 2.375l-1.125 -1.5625l2.75 -1.703125l0 -4.609375l-2.375 0l0 -1.40625l3.859375 0l0 5.9375q1.703125 1.640625 4.453125 1.640625l8.609375 0zm-7.203125 -7.28125l-2.59375 0l0 1.40625l2.59375 0l0 -1.40625zm1.484375 2.59375l0 1.125l5.28125 0l0 1.40625l-5.28125 0l0 1.5625l-1.484375 0l0 -1.5625l-5.046875 0l0 -1.40625l5.046875 0l0 -1.125l-1.921875 0l-1.9375 0l0 -6.296875l3.859375 0l0 -1.1875l-4.890625 0l0 -1.4219055l4.890625 0l0 -1.625l1.421875 0q0.59375 0.078125 0.0625 0.4375l0 1.1875l4.90625 0l0 1.4219055l-4.90625 0l0 1.1875l4.015625 0l0 6.296875l-4.015625 0zm2.75 -5.109375l-2.75 0l0 1.328125l2.75 0l0 -1.328125zm0 2.515625l-2.75 0l0 1.40625l2.75 0l0 -1.40625zm-4.234375 -2.515625l-2.59375 0l0 1.328125l2.59375 0l0 -1.328125zm-8.078125 -4.5312805q1.546875 0.9687805 2.59375 2.5156555l-1.265625 1.265625q-1.109375 -1.484375 -2.453125 -2.515625l1.125 -1.2656555z" fill-rule="nonzero"/><path fill="#ffffff" d="m908.8817 547.8961q0.296875 0 0.296875 -0.296875l0 -1.484375l-5.859375 0l0 -1.1875l5.859375 0l0 -1.1875l-7.796875 0l0 -1.1875l7.796875 0l0 -1.109375l-5.859375 0l0 -1.1875l5.859375 0l0 -1.046875l-2.53125 0l-2.4375 0l0 -3.1875l4.96875 0l0 -0.96875l-7.34375 0l0 -1.1875l7.34375 0l0 -1.703125l1.40625 0q0.59375 0.078125 0.078125 0.453125l0 1.25l7.125 0l0 1.1875l-7.125 0l0 0.96875l4.828125 0l0 3.1875l-4.828125 0l0 1.046875l5.71875 0l0 2.296875l2.0 0l0 1.1875l-2.0 0l0 2.828125l-1.484375 0l0 -0.453125l-4.234375 0l0 2.015625q0 1.1875 -1.1875 1.1875l-1.640625 0l-0.21875 -1.421875l1.265625 0zm-3.421875 -9.578125l3.71875 0l0 -1.40625l-3.71875 0l0 1.40625zm5.203125 0l3.5625 0l0 -1.40625l-3.5625 0l0 1.40625zm0 6.609375l4.234375 0l0 -1.1875l-4.234375 0l0 1.1875zm4.234375 -2.375l0 -1.109375l-4.234375 0l0 1.109375l4.234375 0z" fill-rule="nonzero"/><path fill="#ffffff" d="m902.1317 569.16174q4.15625 -0.96875 6.53125 -3.203125l-6.53125 0l0 -1.1875l7.1875 0l0 -1.109375l-4.8125 0l0 -1.1875l4.8125 0l0 -1.1875l-5.640625 0l0 -1.1875l3.859375 0l-0.8125 -1.40625l-4.59375 0l0 -1.1875l3.484375 0q-0.515625 -0.75 -1.34375 -1.40625l1.125 -0.890625q0.890625 0.515625 1.703125 1.625l-0.8125 0.671875l1.546875 0l0 -3.125l1.421875 0q0.59375 0.078125 0.0625 0.453125l0 2.671875l1.421875 0l0 -3.125l1.40625 0q0.59375 0.078125 0.078125 0.453125l0 2.671875l1.78125 0l-0.828125 -0.59375q0.75 -1.046875 1.34375 -1.9375l1.109375 0.75q0.515625 0.296875 -0.078125 0.375q-0.359375 0.65625 -1.03125 1.40625l3.5625 0l0 1.1875l-4.671875 0l-0.828125 1.40625l4.09375 0l0 1.1875l-5.875 0l0 1.1875l4.984375 0l0 1.1875l-4.984375 0l0 1.109375l7.359375 0l0 1.1875l-6.46875 0q2.609375 2.3125 6.53125 3.125l-0.59375 1.5625q-4.078125 -1.046875 -6.828125 -3.5625l0 4.15625l-1.484375 0l0 -4.015625q-2.59375 2.296875 -6.59375 3.421875l-0.59375 -1.484375zm6.828125 -9.0625l2.296875 0l0.734375 -1.40625l-3.859375 0l0.828125 1.40625z" fill-rule="nonzero"/></g></g></svg>